<mxfile host="app.diagrams.net" modified="2022-12-15T17:38:19.422Z" agent="5.0 (Windows NT 10.0; Win64; x64) AppleWebKit/537.36 (KHTML, like Gecko) Chrome/106.0.0.0 YaBrowser/22.11.2.807 Yowser/2.5 Safari/537.36" etag="J91Um_sY-Fn-HxnE5Btt" version="20.7.2" type="github" pages="6">
  <diagram id="C5RBs43oDa-KdzZeNtuy" name="Страница 1">
    <mxGraphModel dx="1050" dy="569" grid="1" gridSize="10" guides="1" tooltips="1" connect="1" arrows="1" fold="1" page="1" pageScale="1" pageWidth="827" pageHeight="1169" math="0" shadow="0">
      <root>
        <mxCell id="WIyWlLk6GJQsqaUBKTNV-0" />
        <mxCell id="WIyWlLk6GJQsqaUBKTNV-1" parent="WIyWlLk6GJQsqaUBKTNV-0" />
        <mxCell id="GjgOurAi2Zf5-tcRr-RD-16" style="edgeStyle=orthogonalEdgeStyle;rounded=0;orthogonalLoop=1;jettySize=auto;html=1;exitX=0.5;exitY=1;exitDx=0;exitDy=0;exitPerimeter=0;entryX=0.5;entryY=0;entryDx=0;entryDy=0;" edge="1" parent="WIyWlLk6GJQsqaUBKTNV-1" source="GjgOurAi2Zf5-tcRr-RD-17" target="GjgOurAi2Zf5-tcRr-RD-19">
          <mxGeometry relative="1" as="geometry">
            <mxPoint x="370" y="215" as="targetPoint" />
          </mxGeometry>
        </mxCell>
        <mxCell id="GjgOurAi2Zf5-tcRr-RD-17" value="&lt;font style=&quot;font-size: 14px;&quot; face=&quot;Times New Roman&quot;&gt;Начало&lt;/font&gt;" style="strokeWidth=2;html=1;shape=mxgraph.flowchart.terminator;whiteSpace=wrap;" vertex="1" parent="WIyWlLk6GJQsqaUBKTNV-1">
          <mxGeometry x="290" y="130" width="160" height="70" as="geometry" />
        </mxCell>
        <mxCell id="GjgOurAi2Zf5-tcRr-RD-18" style="edgeStyle=orthogonalEdgeStyle;rounded=0;orthogonalLoop=1;jettySize=auto;html=1;exitX=0.5;exitY=1;exitDx=0;exitDy=0;entryX=0.5;entryY=0;entryDx=0;entryDy=0;fontFamily=Times New Roman;fontSize=14;" edge="1" parent="WIyWlLk6GJQsqaUBKTNV-1" source="GjgOurAi2Zf5-tcRr-RD-19">
          <mxGeometry relative="1" as="geometry">
            <mxPoint x="369.9999999999998" y="370" as="targetPoint" />
          </mxGeometry>
        </mxCell>
        <mxCell id="GjgOurAi2Zf5-tcRr-RD-19" value="&lt;font style=&quot;font-size: 14px;&quot; face=&quot;Times New Roman&quot;&gt;numbers = [&quot;1&quot;, &quot;2&quot;, &quot;3&quot;, &quot;4&quot;, &quot;5&quot;, &quot;6&quot;, &quot;7&quot;, &quot;8&quot;, &quot;9&quot;]&lt;br&gt;&lt;/font&gt;" style="rounded=0;whiteSpace=wrap;html=1;" vertex="1" parent="WIyWlLk6GJQsqaUBKTNV-1">
          <mxGeometry x="210" y="250" width="320" height="60" as="geometry" />
        </mxCell>
        <mxCell id="GjgOurAi2Zf5-tcRr-RD-20" style="edgeStyle=orthogonalEdgeStyle;rounded=0;orthogonalLoop=1;jettySize=auto;html=1;exitX=0.5;exitY=1;exitDx=0;exitDy=0;fontFamily=Times New Roman;fontSize=14;" edge="1" parent="WIyWlLk6GJQsqaUBKTNV-1" source="GjgOurAi2Zf5-tcRr-RD-21" target="GjgOurAi2Zf5-tcRr-RD-23">
          <mxGeometry relative="1" as="geometry" />
        </mxCell>
        <mxCell id="GjgOurAi2Zf5-tcRr-RD-21" value="Вывод: &quot;Введите размер матрицы&quot;" style="shape=parallelogram;perimeter=parallelogramPerimeter;whiteSpace=wrap;html=1;fixedSize=1;fontFamily=Times New Roman;fontSize=14;" vertex="1" parent="WIyWlLk6GJQsqaUBKTNV-1">
          <mxGeometry x="252" y="360" width="236" height="60" as="geometry" />
        </mxCell>
        <mxCell id="GjgOurAi2Zf5-tcRr-RD-22" style="edgeStyle=orthogonalEdgeStyle;rounded=0;orthogonalLoop=1;jettySize=auto;html=1;entryX=0.5;entryY=0;entryDx=0;entryDy=0;fontFamily=Times New Roman;fontSize=14;" edge="1" parent="WIyWlLk6GJQsqaUBKTNV-1" source="GjgOurAi2Zf5-tcRr-RD-23" target="GjgOurAi2Zf5-tcRr-RD-26">
          <mxGeometry relative="1" as="geometry" />
        </mxCell>
        <mxCell id="GjgOurAi2Zf5-tcRr-RD-23" value="Ввод: M &lt;br&gt;# размер матрицы M*M от 2 до 5" style="shape=parallelogram;perimeter=parallelogramPerimeter;whiteSpace=wrap;html=1;fixedSize=1;fontFamily=Times New Roman;fontSize=14;" vertex="1" parent="WIyWlLk6GJQsqaUBKTNV-1">
          <mxGeometry x="230" y="450" width="280" height="60" as="geometry" />
        </mxCell>
        <mxCell id="GjgOurAi2Zf5-tcRr-RD-24" style="edgeStyle=orthogonalEdgeStyle;rounded=0;orthogonalLoop=1;jettySize=auto;html=1;entryX=0.5;entryY=0;entryDx=0;entryDy=0;fontFamily=Times New Roman;fontSize=14;" edge="1" parent="WIyWlLk6GJQsqaUBKTNV-1" source="GjgOurAi2Zf5-tcRr-RD-26" target="GjgOurAi2Zf5-tcRr-RD-28">
          <mxGeometry relative="1" as="geometry" />
        </mxCell>
        <mxCell id="GjgOurAi2Zf5-tcRr-RD-25" style="edgeStyle=orthogonalEdgeStyle;rounded=0;orthogonalLoop=1;jettySize=auto;html=1;fontFamily=Times New Roman;fontSize=14;" edge="1" parent="WIyWlLk6GJQsqaUBKTNV-1" source="GjgOurAi2Zf5-tcRr-RD-26">
          <mxGeometry relative="1" as="geometry">
            <mxPoint x="370" y="970" as="targetPoint" />
            <Array as="points">
              <mxPoint x="530" y="610" />
              <mxPoint x="530" y="930" />
              <mxPoint x="370" y="930" />
            </Array>
          </mxGeometry>
        </mxCell>
        <mxCell id="GjgOurAi2Zf5-tcRr-RD-26" value="Пока (M not in [&quot;2&quot;, &quot;3&quot;, &quot;4&quot;, &quot;5&quot;])" style="shape=hexagon;perimeter=hexagonPerimeter2;whiteSpace=wrap;html=1;fixedSize=1;fontFamily=Times New Roman;fontSize=14;" vertex="1" parent="WIyWlLk6GJQsqaUBKTNV-1">
          <mxGeometry x="260" y="570" width="220" height="80" as="geometry" />
        </mxCell>
        <mxCell id="GjgOurAi2Zf5-tcRr-RD-27" style="edgeStyle=orthogonalEdgeStyle;rounded=0;orthogonalLoop=1;jettySize=auto;html=1;fontFamily=Times New Roman;fontSize=14;" edge="1" parent="WIyWlLk6GJQsqaUBKTNV-1" source="GjgOurAi2Zf5-tcRr-RD-28" target="GjgOurAi2Zf5-tcRr-RD-30">
          <mxGeometry relative="1" as="geometry" />
        </mxCell>
        <mxCell id="GjgOurAi2Zf5-tcRr-RD-28" value="Вывод: &quot;Введите размер матрицы&quot;" style="shape=parallelogram;perimeter=parallelogramPerimeter;whiteSpace=wrap;html=1;fixedSize=1;fontFamily=Times New Roman;fontSize=14;" vertex="1" parent="WIyWlLk6GJQsqaUBKTNV-1">
          <mxGeometry x="252" y="690" width="236" height="60" as="geometry" />
        </mxCell>
        <mxCell id="GjgOurAi2Zf5-tcRr-RD-29" style="edgeStyle=orthogonalEdgeStyle;rounded=0;orthogonalLoop=1;jettySize=auto;html=1;exitX=0.5;exitY=1;exitDx=0;exitDy=0;fontFamily=Times New Roman;fontSize=14;entryX=0;entryY=0.5;entryDx=0;entryDy=0;" edge="1" parent="WIyWlLk6GJQsqaUBKTNV-1" source="GjgOurAi2Zf5-tcRr-RD-30" target="GjgOurAi2Zf5-tcRr-RD-26">
          <mxGeometry relative="1" as="geometry">
            <mxPoint x="200" y="630" as="targetPoint" />
            <Array as="points">
              <mxPoint x="370" y="910" />
              <mxPoint x="210" y="910" />
              <mxPoint x="210" y="610" />
            </Array>
          </mxGeometry>
        </mxCell>
        <mxCell id="GjgOurAi2Zf5-tcRr-RD-30" value="Ввод: M &lt;br&gt;# размер матрицы M*M от 2 до 5" style="shape=parallelogram;perimeter=parallelogramPerimeter;whiteSpace=wrap;html=1;fixedSize=1;fontFamily=Times New Roman;fontSize=14;" vertex="1" parent="WIyWlLk6GJQsqaUBKTNV-1">
          <mxGeometry x="230" y="800" width="280" height="60" as="geometry" />
        </mxCell>
        <mxCell id="GjgOurAi2Zf5-tcRr-RD-31" value="A" style="ellipse;whiteSpace=wrap;html=1;aspect=fixed;fontFamily=Times New Roman;fontSize=14;" vertex="1" parent="WIyWlLk6GJQsqaUBKTNV-1">
          <mxGeometry x="330" y="970" width="80" height="80" as="geometry" />
        </mxCell>
      </root>
    </mxGraphModel>
  </diagram>
  <diagram id="FV6ZrstD5q71xaoFRTap" name="Страница 2">
    <mxGraphModel dx="1050" dy="569" grid="1" gridSize="10" guides="1" tooltips="1" connect="1" arrows="1" fold="1" page="1" pageScale="1" pageWidth="827" pageHeight="1169" math="0" shadow="0">
      <root>
        <mxCell id="0" />
        <mxCell id="1" parent="0" />
        <mxCell id="gkr2SS8Am99Pd6OwwWke-1" style="edgeStyle=orthogonalEdgeStyle;rounded=0;orthogonalLoop=1;jettySize=auto;html=1;fontFamily=Times New Roman;fontSize=14;" edge="1" parent="1" source="gkr2SS8Am99Pd6OwwWke-2">
          <mxGeometry relative="1" as="geometry">
            <mxPoint x="400" y="160" as="targetPoint" />
          </mxGeometry>
        </mxCell>
        <mxCell id="gkr2SS8Am99Pd6OwwWke-2" value="A" style="ellipse;whiteSpace=wrap;html=1;aspect=fixed;fontFamily=Times New Roman;fontSize=14;" vertex="1" parent="1">
          <mxGeometry x="360" y="40" width="80" height="80" as="geometry" />
        </mxCell>
        <mxCell id="gkr2SS8Am99Pd6OwwWke-3" style="edgeStyle=orthogonalEdgeStyle;rounded=0;orthogonalLoop=1;jettySize=auto;html=1;fontFamily=Times New Roman;fontSize=14;" edge="1" parent="1" source="gkr2SS8Am99Pd6OwwWke-4" target="gkr2SS8Am99Pd6OwwWke-6">
          <mxGeometry relative="1" as="geometry" />
        </mxCell>
        <mxCell id="gkr2SS8Am99Pd6OwwWke-4" value="matrix = [] # объявление матрицы" style="rounded=0;whiteSpace=wrap;html=1;fontFamily=Times New Roman;fontSize=14;" vertex="1" parent="1">
          <mxGeometry x="290" y="160" width="220" height="60" as="geometry" />
        </mxCell>
        <mxCell id="gkr2SS8Am99Pd6OwwWke-5" style="edgeStyle=orthogonalEdgeStyle;rounded=0;orthogonalLoop=1;jettySize=auto;html=1;fontFamily=Times New Roman;fontSize=14;" edge="1" parent="1" source="gkr2SS8Am99Pd6OwwWke-6">
          <mxGeometry relative="1" as="geometry">
            <mxPoint x="400" y="360" as="targetPoint" />
          </mxGeometry>
        </mxCell>
        <mxCell id="gkr2SS8Am99Pd6OwwWke-6" value="tmp = [] # временный массив" style="rounded=0;whiteSpace=wrap;html=1;fontFamily=Times New Roman;fontSize=14;" vertex="1" parent="1">
          <mxGeometry x="300" y="260" width="200" height="60" as="geometry" />
        </mxCell>
        <mxCell id="gkr2SS8Am99Pd6OwwWke-7" style="edgeStyle=orthogonalEdgeStyle;rounded=0;orthogonalLoop=1;jettySize=auto;html=1;fontFamily=Times New Roman;fontSize=14;" edge="1" parent="1" source="gkr2SS8Am99Pd6OwwWke-8" target="gkr2SS8Am99Pd6OwwWke-10">
          <mxGeometry relative="1" as="geometry" />
        </mxCell>
        <mxCell id="gkr2SS8Am99Pd6OwwWke-8" value="Вывод: &quot;Введите способ ввода матрицы (1 - случайные, 2 - пользователь вводит с клавиатуры)&quot;" style="shape=parallelogram;perimeter=parallelogramPerimeter;whiteSpace=wrap;html=1;fixedSize=1;fontFamily=Times New Roman;fontSize=14;" vertex="1" parent="1">
          <mxGeometry x="100" y="360" width="600" height="60" as="geometry" />
        </mxCell>
        <mxCell id="gkr2SS8Am99Pd6OwwWke-9" style="edgeStyle=orthogonalEdgeStyle;rounded=0;orthogonalLoop=1;jettySize=auto;html=1;entryX=0.5;entryY=0;entryDx=0;entryDy=0;fontFamily=Times New Roman;fontSize=14;" edge="1" parent="1" source="gkr2SS8Am99Pd6OwwWke-10" target="gkr2SS8Am99Pd6OwwWke-13">
          <mxGeometry relative="1" as="geometry" />
        </mxCell>
        <mxCell id="gkr2SS8Am99Pd6OwwWke-10" value="Ввод: variant&lt;br&gt;# пользователь выбирает вариант создания матрицы" style="shape=parallelogram;perimeter=parallelogramPerimeter;whiteSpace=wrap;html=1;fixedSize=1;fontFamily=Times New Roman;fontSize=14;" vertex="1" parent="1">
          <mxGeometry x="123.44" y="470" width="553.12" height="60" as="geometry" />
        </mxCell>
        <mxCell id="gkr2SS8Am99Pd6OwwWke-11" style="edgeStyle=orthogonalEdgeStyle;rounded=0;orthogonalLoop=1;jettySize=auto;html=1;entryX=0.5;entryY=0;entryDx=0;entryDy=0;fontFamily=Times New Roman;fontSize=14;" edge="1" parent="1" source="gkr2SS8Am99Pd6OwwWke-13" target="gkr2SS8Am99Pd6OwwWke-15">
          <mxGeometry relative="1" as="geometry" />
        </mxCell>
        <mxCell id="gkr2SS8Am99Pd6OwwWke-12" style="edgeStyle=orthogonalEdgeStyle;rounded=0;orthogonalLoop=1;jettySize=auto;html=1;fontFamily=Times New Roman;fontSize=14;entryX=0.5;entryY=0;entryDx=0;entryDy=0;" edge="1" parent="1" source="gkr2SS8Am99Pd6OwwWke-13" target="gkr2SS8Am99Pd6OwwWke-18">
          <mxGeometry relative="1" as="geometry">
            <mxPoint x="400" y="965" as="targetPoint" />
            <Array as="points">
              <mxPoint x="560" y="625" />
              <mxPoint x="560" y="920" />
              <mxPoint x="400" y="920" />
            </Array>
          </mxGeometry>
        </mxCell>
        <mxCell id="gkr2SS8Am99Pd6OwwWke-13" value="Пока (variant not in [&quot;1&quot;, &quot;2&quot;])" style="shape=hexagon;perimeter=hexagonPerimeter2;whiteSpace=wrap;html=1;fixedSize=1;fontFamily=Times New Roman;fontSize=14;" vertex="1" parent="1">
          <mxGeometry x="300" y="585" width="200" height="80" as="geometry" />
        </mxCell>
        <mxCell id="gkr2SS8Am99Pd6OwwWke-14" style="edgeStyle=orthogonalEdgeStyle;rounded=0;orthogonalLoop=1;jettySize=auto;html=1;fontFamily=Times New Roman;fontSize=14;" edge="1" parent="1" source="gkr2SS8Am99Pd6OwwWke-15" target="gkr2SS8Am99Pd6OwwWke-17">
          <mxGeometry relative="1" as="geometry" />
        </mxCell>
        <mxCell id="gkr2SS8Am99Pd6OwwWke-15" value="Вывод: &quot;1 или 2!&quot;" style="shape=parallelogram;perimeter=parallelogramPerimeter;whiteSpace=wrap;html=1;fixedSize=1;fontFamily=Times New Roman;fontSize=14;" vertex="1" parent="1">
          <mxGeometry x="282" y="705" width="236" height="60" as="geometry" />
        </mxCell>
        <mxCell id="gkr2SS8Am99Pd6OwwWke-16" style="edgeStyle=orthogonalEdgeStyle;rounded=0;orthogonalLoop=1;jettySize=auto;html=1;exitX=0.5;exitY=1;exitDx=0;exitDy=0;fontFamily=Times New Roman;fontSize=14;entryX=0;entryY=0.5;entryDx=0;entryDy=0;" edge="1" parent="1" source="gkr2SS8Am99Pd6OwwWke-17" target="gkr2SS8Am99Pd6OwwWke-13">
          <mxGeometry relative="1" as="geometry">
            <mxPoint x="230" y="625" as="targetPoint" />
            <Array as="points">
              <mxPoint x="400" y="905" />
              <mxPoint x="240" y="905" />
              <mxPoint x="240" y="625" />
            </Array>
          </mxGeometry>
        </mxCell>
        <mxCell id="gkr2SS8Am99Pd6OwwWke-17" value="Ввод: variant" style="shape=parallelogram;perimeter=parallelogramPerimeter;whiteSpace=wrap;html=1;fixedSize=1;fontFamily=Times New Roman;fontSize=14;" vertex="1" parent="1">
          <mxGeometry x="330" y="805" width="140" height="60" as="geometry" />
        </mxCell>
        <mxCell id="gkr2SS8Am99Pd6OwwWke-18" value="B" style="ellipse;whiteSpace=wrap;html=1;aspect=fixed;fontFamily=Times New Roman;fontSize=14;" vertex="1" parent="1">
          <mxGeometry x="360" y="960" width="80" height="80" as="geometry" />
        </mxCell>
      </root>
    </mxGraphModel>
  </diagram>
  <diagram id="NKcluoj3_Xg4cyAmRNEq" name="Страница 3">
    <mxGraphModel dx="1877" dy="569" grid="1" gridSize="10" guides="1" tooltips="1" connect="1" arrows="1" fold="1" page="1" pageScale="1" pageWidth="827" pageHeight="1169" math="0" shadow="0">
      <root>
        <mxCell id="0" />
        <mxCell id="1" parent="0" />
        <mxCell id="9nV9WCwFxbPM0aRE23Jn-1" style="edgeStyle=orthogonalEdgeStyle;rounded=0;orthogonalLoop=1;jettySize=auto;html=1;fontFamily=Times New Roman;fontSize=14;" edge="1" parent="1" source="9nV9WCwFxbPM0aRE23Jn-2">
          <mxGeometry relative="1" as="geometry">
            <mxPoint x="440" y="160" as="targetPoint" />
          </mxGeometry>
        </mxCell>
        <mxCell id="9nV9WCwFxbPM0aRE23Jn-2" value="B" style="ellipse;whiteSpace=wrap;html=1;aspect=fixed;fontFamily=Times New Roman;fontSize=14;" vertex="1" parent="1">
          <mxGeometry x="400" y="40" width="80" height="80" as="geometry" />
        </mxCell>
        <mxCell id="9nV9WCwFxbPM0aRE23Jn-3" style="edgeStyle=orthogonalEdgeStyle;rounded=0;orthogonalLoop=1;jettySize=auto;html=1;fontFamily=Times New Roman;fontSize=14;" edge="1" parent="1" source="9nV9WCwFxbPM0aRE23Jn-5">
          <mxGeometry relative="1" as="geometry">
            <mxPoint x="120.0212765957449" y="360" as="targetPoint" />
            <Array as="points">
              <mxPoint x="120" y="220" />
            </Array>
          </mxGeometry>
        </mxCell>
        <mxCell id="9nV9WCwFxbPM0aRE23Jn-4" style="edgeStyle=orthogonalEdgeStyle;rounded=0;orthogonalLoop=1;jettySize=auto;html=1;exitX=1;exitY=0.5;exitDx=0;exitDy=0;exitPerimeter=0;fontFamily=Times New Roman;fontSize=14;" edge="1" parent="1" source="9nV9WCwFxbPM0aRE23Jn-5" target="9nV9WCwFxbPM0aRE23Jn-29">
          <mxGeometry relative="1" as="geometry">
            <mxPoint x="1105" y="310" as="targetPoint" />
            <Array as="points">
              <mxPoint x="1107" y="220" />
            </Array>
          </mxGeometry>
        </mxCell>
        <mxCell id="9nV9WCwFxbPM0aRE23Jn-5" value="Если int(variant) == 1" style="strokeWidth=2;html=1;shape=mxgraph.flowchart.decision;whiteSpace=wrap;fontFamily=Times New Roman;fontSize=14;" vertex="1" parent="1">
          <mxGeometry x="360" y="160" width="160" height="120" as="geometry" />
        </mxCell>
        <mxCell id="9nV9WCwFxbPM0aRE23Jn-6" value="Да" style="text;html=1;align=center;verticalAlign=middle;resizable=0;points=[];autosize=1;strokeColor=none;fillColor=none;fontSize=14;fontFamily=Times New Roman;" vertex="1" parent="1">
          <mxGeometry x="200" y="190" width="40" height="30" as="geometry" />
        </mxCell>
        <mxCell id="9nV9WCwFxbPM0aRE23Jn-7" value="Нет" style="text;html=1;align=center;verticalAlign=middle;resizable=0;points=[];autosize=1;strokeColor=none;fillColor=none;fontSize=14;fontFamily=Times New Roman;" vertex="1" parent="1">
          <mxGeometry x="827" y="190" width="50" height="30" as="geometry" />
        </mxCell>
        <mxCell id="9nV9WCwFxbPM0aRE23Jn-8" style="edgeStyle=orthogonalEdgeStyle;rounded=0;orthogonalLoop=1;jettySize=auto;html=1;fontFamily=Times New Roman;fontSize=14;" edge="1" parent="1" source="9nV9WCwFxbPM0aRE23Jn-10">
          <mxGeometry relative="1" as="geometry">
            <mxPoint x="120" y="440" as="targetPoint" />
          </mxGeometry>
        </mxCell>
        <mxCell id="9nV9WCwFxbPM0aRE23Jn-9" style="edgeStyle=orthogonalEdgeStyle;rounded=0;orthogonalLoop=1;jettySize=auto;html=1;fontFamily=Times New Roman;fontSize=14;" edge="1" parent="1" source="9nV9WCwFxbPM0aRE23Jn-10">
          <mxGeometry relative="1" as="geometry">
            <mxPoint x="120" y="840" as="targetPoint" />
            <Array as="points">
              <mxPoint x="360" y="360" />
              <mxPoint x="360" y="800" />
            </Array>
          </mxGeometry>
        </mxCell>
        <mxCell id="9nV9WCwFxbPM0aRE23Jn-10" value="for i in range(int(M))" style="shape=hexagon;perimeter=hexagonPerimeter2;whiteSpace=wrap;html=1;fixedSize=1;fontFamily=Times New Roman;fontSize=14;" vertex="1" parent="1">
          <mxGeometry x="50" y="320" width="140" height="80" as="geometry" />
        </mxCell>
        <mxCell id="9nV9WCwFxbPM0aRE23Jn-11" style="edgeStyle=orthogonalEdgeStyle;rounded=0;orthogonalLoop=1;jettySize=auto;html=1;entryX=0.5;entryY=0;entryDx=0;entryDy=0;fontFamily=Times New Roman;fontSize=14;" edge="1" parent="1" source="9nV9WCwFxbPM0aRE23Jn-12" target="9nV9WCwFxbPM0aRE23Jn-15">
          <mxGeometry relative="1" as="geometry" />
        </mxCell>
        <mxCell id="9nV9WCwFxbPM0aRE23Jn-12" value="matrix.append([])" style="rounded=0;whiteSpace=wrap;html=1;fontFamily=Times New Roman;fontSize=14;" vertex="1" parent="1">
          <mxGeometry x="60" y="440" width="120" height="60" as="geometry" />
        </mxCell>
        <mxCell id="9nV9WCwFxbPM0aRE23Jn-13" style="edgeStyle=orthogonalEdgeStyle;rounded=0;orthogonalLoop=1;jettySize=auto;html=1;entryX=0.5;entryY=0;entryDx=0;entryDy=0;fontFamily=Times New Roman;fontSize=14;" edge="1" parent="1" source="9nV9WCwFxbPM0aRE23Jn-15" target="9nV9WCwFxbPM0aRE23Jn-17">
          <mxGeometry relative="1" as="geometry" />
        </mxCell>
        <mxCell id="9nV9WCwFxbPM0aRE23Jn-14" style="edgeStyle=orthogonalEdgeStyle;rounded=0;orthogonalLoop=1;jettySize=auto;html=1;fontFamily=Times New Roman;fontSize=14;entryX=0;entryY=0.5;entryDx=0;entryDy=0;" edge="1" parent="1" source="9nV9WCwFxbPM0aRE23Jn-15" target="9nV9WCwFxbPM0aRE23Jn-10">
          <mxGeometry relative="1" as="geometry">
            <mxPoint x="-120" y="360" as="targetPoint" />
            <Array as="points">
              <mxPoint x="300" y="580" />
              <mxPoint x="300" y="760" />
              <mxPoint x="-120" y="760" />
              <mxPoint x="-120" y="360" />
            </Array>
          </mxGeometry>
        </mxCell>
        <mxCell id="9nV9WCwFxbPM0aRE23Jn-15" value="for j in range(int(M))" style="shape=hexagon;perimeter=hexagonPerimeter2;whiteSpace=wrap;html=1;fixedSize=1;fontFamily=Times New Roman;fontSize=14;" vertex="1" parent="1">
          <mxGeometry x="50" y="540" width="140" height="80" as="geometry" />
        </mxCell>
        <mxCell id="9nV9WCwFxbPM0aRE23Jn-16" style="edgeStyle=orthogonalEdgeStyle;rounded=0;orthogonalLoop=1;jettySize=auto;html=1;fontFamily=Times New Roman;fontSize=14;entryX=0;entryY=0.5;entryDx=0;entryDy=0;" edge="1" parent="1" source="9nV9WCwFxbPM0aRE23Jn-17" target="9nV9WCwFxbPM0aRE23Jn-15">
          <mxGeometry relative="1" as="geometry">
            <mxPoint x="-80" y="690" as="targetPoint" />
            <Array as="points">
              <mxPoint x="-70" y="690" />
              <mxPoint x="-70" y="580" />
            </Array>
          </mxGeometry>
        </mxCell>
        <mxCell id="9nV9WCwFxbPM0aRE23Jn-17" value="matrix.append(random.randint(1, 100))" style="rounded=0;whiteSpace=wrap;html=1;fontFamily=Times New Roman;fontSize=14;" vertex="1" parent="1">
          <mxGeometry y="660" width="240" height="60" as="geometry" />
        </mxCell>
        <mxCell id="9nV9WCwFxbPM0aRE23Jn-18" style="edgeStyle=orthogonalEdgeStyle;rounded=0;orthogonalLoop=1;jettySize=auto;html=1;fontFamily=Times New Roman;fontSize=14;" edge="1" parent="1" source="9nV9WCwFxbPM0aRE23Jn-20">
          <mxGeometry relative="1" as="geometry">
            <mxPoint x="120" y="960" as="targetPoint" />
          </mxGeometry>
        </mxCell>
        <mxCell id="9nV9WCwFxbPM0aRE23Jn-19" style="edgeStyle=orthogonalEdgeStyle;rounded=0;orthogonalLoop=1;jettySize=auto;html=1;fontFamily=Times New Roman;fontSize=14;" edge="1" parent="1" source="9nV9WCwFxbPM0aRE23Jn-20">
          <mxGeometry relative="1" as="geometry">
            <mxPoint x="120" y="1280" as="targetPoint" />
            <Array as="points">
              <mxPoint x="360" y="880" />
              <mxPoint x="360" y="1240" />
              <mxPoint x="120" y="1240" />
            </Array>
          </mxGeometry>
        </mxCell>
        <mxCell id="9nV9WCwFxbPM0aRE23Jn-20" value="for i in range(len(matrix))" style="shape=hexagon;perimeter=hexagonPerimeter2;whiteSpace=wrap;html=1;fixedSize=1;fontFamily=Times New Roman;fontSize=14;" vertex="1" parent="1">
          <mxGeometry x="40" y="840" width="160" height="80" as="geometry" />
        </mxCell>
        <mxCell id="9nV9WCwFxbPM0aRE23Jn-21" style="edgeStyle=orthogonalEdgeStyle;rounded=0;orthogonalLoop=1;jettySize=auto;html=1;entryX=0.5;entryY=0;entryDx=0;entryDy=0;fontFamily=Times New Roman;fontSize=14;" edge="1" parent="1" source="9nV9WCwFxbPM0aRE23Jn-23" target="9nV9WCwFxbPM0aRE23Jn-25">
          <mxGeometry relative="1" as="geometry" />
        </mxCell>
        <mxCell id="9nV9WCwFxbPM0aRE23Jn-22" style="edgeStyle=orthogonalEdgeStyle;rounded=0;orthogonalLoop=1;jettySize=auto;html=1;fontFamily=Times New Roman;fontSize=14;entryX=0;entryY=0.5;entryDx=0;entryDy=0;" edge="1" parent="1" source="9nV9WCwFxbPM0aRE23Jn-23" target="9nV9WCwFxbPM0aRE23Jn-20">
          <mxGeometry relative="1" as="geometry">
            <mxPoint x="-120" y="880" as="targetPoint" />
            <Array as="points">
              <mxPoint x="280" y="1000" />
              <mxPoint x="280" y="1200" />
              <mxPoint x="-120" y="1200" />
              <mxPoint x="-120" y="880" />
            </Array>
          </mxGeometry>
        </mxCell>
        <mxCell id="9nV9WCwFxbPM0aRE23Jn-23" value="for j in range(len(matrix))" style="shape=hexagon;perimeter=hexagonPerimeter2;whiteSpace=wrap;html=1;fixedSize=1;fontFamily=Times New Roman;fontSize=14;" vertex="1" parent="1">
          <mxGeometry x="40" y="960" width="160" height="80" as="geometry" />
        </mxCell>
        <mxCell id="9nV9WCwFxbPM0aRE23Jn-24" style="edgeStyle=orthogonalEdgeStyle;rounded=0;orthogonalLoop=1;jettySize=auto;html=1;fontFamily=Times New Roman;fontSize=14;entryX=0;entryY=0.5;entryDx=0;entryDy=0;" edge="1" parent="1" source="9nV9WCwFxbPM0aRE23Jn-25" target="9nV9WCwFxbPM0aRE23Jn-23">
          <mxGeometry relative="1" as="geometry">
            <mxPoint x="-40" y="1000" as="targetPoint" />
            <Array as="points">
              <mxPoint x="120" y="1170" />
              <mxPoint y="1170" />
              <mxPoint y="1000" />
            </Array>
          </mxGeometry>
        </mxCell>
        <mxCell id="9nV9WCwFxbPM0aRE23Jn-25" value="tmp.append(matrix[i][j])" style="rounded=0;whiteSpace=wrap;html=1;fontFamily=Times New Roman;fontSize=14;" vertex="1" parent="1">
          <mxGeometry x="40" y="1080" width="160" height="60" as="geometry" />
        </mxCell>
        <mxCell id="9nV9WCwFxbPM0aRE23Jn-26" value="C" style="ellipse;whiteSpace=wrap;html=1;aspect=fixed;fontFamily=Times New Roman;fontSize=14;" vertex="1" parent="1">
          <mxGeometry x="80" y="1280" width="80" height="80" as="geometry" />
        </mxCell>
        <mxCell id="9nV9WCwFxbPM0aRE23Jn-27" style="edgeStyle=orthogonalEdgeStyle;rounded=0;orthogonalLoop=1;jettySize=auto;html=1;entryX=0.5;entryY=0;entryDx=0;entryDy=0;fontFamily=Times New Roman;fontSize=14;" edge="1" parent="1" source="9nV9WCwFxbPM0aRE23Jn-29" target="9nV9WCwFxbPM0aRE23Jn-31">
          <mxGeometry relative="1" as="geometry" />
        </mxCell>
        <mxCell id="9nV9WCwFxbPM0aRE23Jn-28" style="edgeStyle=orthogonalEdgeStyle;rounded=0;orthogonalLoop=1;jettySize=auto;html=1;fontFamily=Times New Roman;fontSize=14;" edge="1" parent="1" source="9nV9WCwFxbPM0aRE23Jn-29">
          <mxGeometry relative="1" as="geometry">
            <mxPoint x="1080" y="2440" as="targetPoint" />
            <Array as="points">
              <mxPoint x="2360" y="355" />
              <mxPoint x="2360" y="2360" />
            </Array>
          </mxGeometry>
        </mxCell>
        <mxCell id="9nV9WCwFxbPM0aRE23Jn-29" value="for i in range(int(M))" style="shape=hexagon;perimeter=hexagonPerimeter2;whiteSpace=wrap;html=1;fixedSize=1;fontFamily=Times New Roman;fontSize=14;" vertex="1" parent="1">
          <mxGeometry x="1040" y="315" width="130" height="80" as="geometry" />
        </mxCell>
        <mxCell id="9nV9WCwFxbPM0aRE23Jn-30" style="edgeStyle=orthogonalEdgeStyle;rounded=0;orthogonalLoop=1;jettySize=auto;html=1;entryX=0.5;entryY=0;entryDx=0;entryDy=0;fontFamily=Times New Roman;fontSize=14;" edge="1" parent="1" source="9nV9WCwFxbPM0aRE23Jn-31" target="9nV9WCwFxbPM0aRE23Jn-34">
          <mxGeometry relative="1" as="geometry" />
        </mxCell>
        <mxCell id="9nV9WCwFxbPM0aRE23Jn-31" value="p = []" style="rounded=0;whiteSpace=wrap;html=1;fontFamily=Times New Roman;fontSize=14;" vertex="1" parent="1">
          <mxGeometry x="1067" y="435" width="80" height="60" as="geometry" />
        </mxCell>
        <mxCell id="9nV9WCwFxbPM0aRE23Jn-32" style="edgeStyle=orthogonalEdgeStyle;rounded=0;orthogonalLoop=1;jettySize=auto;html=1;entryX=0.5;entryY=0;entryDx=0;entryDy=0;fontFamily=Times New Roman;fontSize=14;" edge="1" parent="1" source="9nV9WCwFxbPM0aRE23Jn-34">
          <mxGeometry relative="1" as="geometry">
            <mxPoint x="1107" y="655" as="targetPoint" />
          </mxGeometry>
        </mxCell>
        <mxCell id="9nV9WCwFxbPM0aRE23Jn-33" style="edgeStyle=orthogonalEdgeStyle;rounded=0;orthogonalLoop=1;jettySize=auto;html=1;fontFamily=Times New Roman;fontSize=14;" edge="1" parent="1" source="9nV9WCwFxbPM0aRE23Jn-34" target="9nV9WCwFxbPM0aRE23Jn-29">
          <mxGeometry relative="1" as="geometry">
            <mxPoint x="770" y="360" as="targetPoint" />
            <Array as="points">
              <mxPoint x="2280" y="575" />
              <mxPoint x="2280" y="2320" />
              <mxPoint x="600" y="2320" />
              <mxPoint x="600" y="355" />
            </Array>
            <mxPoint x="1190" y="575" as="sourcePoint" />
          </mxGeometry>
        </mxCell>
        <mxCell id="9nV9WCwFxbPM0aRE23Jn-34" value="for j in range(int(M))" style="shape=hexagon;perimeter=hexagonPerimeter2;whiteSpace=wrap;html=1;fixedSize=1;fontFamily=Times New Roman;fontSize=14;" vertex="1" parent="1">
          <mxGeometry x="1032" y="540" width="150" height="80" as="geometry" />
        </mxCell>
        <mxCell id="9nV9WCwFxbPM0aRE23Jn-35" style="edgeStyle=orthogonalEdgeStyle;rounded=0;orthogonalLoop=1;jettySize=auto;html=1;exitX=0.5;exitY=1;exitDx=0;exitDy=0;fontFamily=Times New Roman;fontSize=14;" edge="1" parent="1" source="9nV9WCwFxbPM0aRE23Jn-36" target="9nV9WCwFxbPM0aRE23Jn-38">
          <mxGeometry relative="1" as="geometry" />
        </mxCell>
        <mxCell id="9nV9WCwFxbPM0aRE23Jn-36" value="Вывод: f&quot;Введите значения [{i};{j}]&quot;" style="shape=parallelogram;perimeter=parallelogramPerimeter;whiteSpace=wrap;html=1;fixedSize=1;fontFamily=Times New Roman;fontSize=14;" vertex="1" parent="1">
          <mxGeometry x="977" y="655" width="260" height="60" as="geometry" />
        </mxCell>
        <mxCell id="9nV9WCwFxbPM0aRE23Jn-37" style="edgeStyle=orthogonalEdgeStyle;rounded=0;orthogonalLoop=1;jettySize=auto;html=1;entryX=0.5;entryY=0;entryDx=0;entryDy=0;fontFamily=Times New Roman;fontSize=14;" edge="1" parent="1" source="9nV9WCwFxbPM0aRE23Jn-38" target="9nV9WCwFxbPM0aRE23Jn-40">
          <mxGeometry relative="1" as="geometry" />
        </mxCell>
        <mxCell id="9nV9WCwFxbPM0aRE23Jn-38" value="Ввод: qtty" style="shape=parallelogram;perimeter=parallelogramPerimeter;whiteSpace=wrap;html=1;fixedSize=1;fontFamily=Times New Roman;fontSize=14;" vertex="1" parent="1">
          <mxGeometry x="1057" y="755" width="100" height="60" as="geometry" />
        </mxCell>
        <mxCell id="9nV9WCwFxbPM0aRE23Jn-39" style="edgeStyle=orthogonalEdgeStyle;rounded=0;orthogonalLoop=1;jettySize=auto;html=1;entryX=0.5;entryY=0;entryDx=0;entryDy=0;fontFamily=Times New Roman;fontSize=14;" edge="1" parent="1" source="9nV9WCwFxbPM0aRE23Jn-40" target="9nV9WCwFxbPM0aRE23Jn-43">
          <mxGeometry relative="1" as="geometry" />
        </mxCell>
        <mxCell id="9nV9WCwFxbPM0aRE23Jn-40" value="c = 0" style="rounded=0;whiteSpace=wrap;html=1;fontFamily=Times New Roman;fontSize=14;" vertex="1" parent="1">
          <mxGeometry x="1067" y="855" width="80" height="60" as="geometry" />
        </mxCell>
        <mxCell id="9nV9WCwFxbPM0aRE23Jn-41" style="edgeStyle=orthogonalEdgeStyle;rounded=0;orthogonalLoop=1;jettySize=auto;html=1;fontFamily=Times New Roman;fontSize=14;" edge="1" parent="1" source="9nV9WCwFxbPM0aRE23Jn-43">
          <mxGeometry relative="1" as="geometry">
            <mxPoint x="1107" y="1075" as="targetPoint" />
          </mxGeometry>
        </mxCell>
        <mxCell id="9nV9WCwFxbPM0aRE23Jn-42" style="edgeStyle=orthogonalEdgeStyle;rounded=0;orthogonalLoop=1;jettySize=auto;html=1;fontFamily=Times New Roman;fontSize=14;entryX=0.458;entryY=-0.007;entryDx=0;entryDy=0;entryPerimeter=0;" edge="1" parent="1" source="9nV9WCwFxbPM0aRE23Jn-43" target="9nV9WCwFxbPM0aRE23Jn-84">
          <mxGeometry relative="1" as="geometry">
            <mxPoint x="1077" y="2080" as="targetPoint" />
            <Array as="points">
              <mxPoint x="2120" y="1000" />
              <mxPoint x="2120" y="2040" />
              <mxPoint x="1080" y="2040" />
              <mxPoint x="1080" y="2070" />
              <mxPoint x="1080" y="2070" />
            </Array>
          </mxGeometry>
        </mxCell>
        <mxCell id="9nV9WCwFxbPM0aRE23Jn-43" value="Пока (c == 0)" style="shape=hexagon;perimeter=hexagonPerimeter2;whiteSpace=wrap;html=1;fixedSize=1;fontFamily=Times New Roman;fontSize=14;" vertex="1" parent="1">
          <mxGeometry x="1047" y="960" width="120" height="80" as="geometry" />
        </mxCell>
        <mxCell id="9nV9WCwFxbPM0aRE23Jn-44" style="edgeStyle=orthogonalEdgeStyle;rounded=0;orthogonalLoop=1;jettySize=auto;html=1;fontFamily=Times New Roman;fontSize=14;entryX=0.5;entryY=0;entryDx=0;entryDy=0;entryPerimeter=0;" edge="1" parent="1" source="9nV9WCwFxbPM0aRE23Jn-46" target="9nV9WCwFxbPM0aRE23Jn-50">
          <mxGeometry relative="1" as="geometry">
            <mxPoint x="947" y="1135" as="targetPoint" />
            <Array as="points">
              <mxPoint x="947" y="1135" />
            </Array>
          </mxGeometry>
        </mxCell>
        <mxCell id="9nV9WCwFxbPM0aRE23Jn-45" style="edgeStyle=orthogonalEdgeStyle;rounded=0;orthogonalLoop=1;jettySize=auto;html=1;fontFamily=Times New Roman;fontSize=14;entryX=0.5;entryY=0;entryDx=0;entryDy=0;entryPerimeter=0;" edge="1" parent="1" source="9nV9WCwFxbPM0aRE23Jn-46" target="9nV9WCwFxbPM0aRE23Jn-54">
          <mxGeometry relative="1" as="geometry">
            <mxPoint x="1307" y="1175" as="targetPoint" />
          </mxGeometry>
        </mxCell>
        <mxCell id="9nV9WCwFxbPM0aRE23Jn-46" value="Если len(qtty) == 1" style="strokeWidth=2;html=1;shape=mxgraph.flowchart.decision;whiteSpace=wrap;fontFamily=Times New Roman;fontSize=14;" vertex="1" parent="1">
          <mxGeometry x="1017" y="1075" width="180" height="120" as="geometry" />
        </mxCell>
        <mxCell id="9nV9WCwFxbPM0aRE23Jn-47" value="Нет" style="text;html=1;align=center;verticalAlign=middle;resizable=0;points=[];autosize=1;strokeColor=none;fillColor=none;fontSize=14;fontFamily=Times New Roman;" vertex="1" parent="1">
          <mxGeometry x="1307" y="1105" width="50" height="30" as="geometry" />
        </mxCell>
        <mxCell id="9nV9WCwFxbPM0aRE23Jn-48" value="Да" style="text;html=1;strokeColor=none;fillColor=none;align=center;verticalAlign=middle;whiteSpace=wrap;rounded=0;fontFamily=Times New Roman;fontSize=14;" vertex="1" parent="1">
          <mxGeometry x="957" y="1105" width="60" height="30" as="geometry" />
        </mxCell>
        <mxCell id="9nV9WCwFxbPM0aRE23Jn-49" style="edgeStyle=orthogonalEdgeStyle;rounded=0;orthogonalLoop=1;jettySize=auto;html=1;fontFamily=Times New Roman;fontSize=14;" edge="1" parent="1" source="9nV9WCwFxbPM0aRE23Jn-50" target="9nV9WCwFxbPM0aRE23Jn-52">
          <mxGeometry relative="1" as="geometry" />
        </mxCell>
        <mxCell id="9nV9WCwFxbPM0aRE23Jn-50" value="Если qtty[0] in numbers" style="strokeWidth=2;html=1;shape=mxgraph.flowchart.decision;whiteSpace=wrap;fontFamily=Times New Roman;fontSize=14;" vertex="1" parent="1">
          <mxGeometry x="867" y="1205" width="160" height="120" as="geometry" />
        </mxCell>
        <mxCell id="9nV9WCwFxbPM0aRE23Jn-51" style="edgeStyle=orthogonalEdgeStyle;rounded=0;orthogonalLoop=1;jettySize=auto;html=1;fontFamily=Times New Roman;fontSize=14;entryX=0;entryY=0.25;entryDx=0;entryDy=0;" edge="1" parent="1" source="9nV9WCwFxbPM0aRE23Jn-52" target="9nV9WCwFxbPM0aRE23Jn-43">
          <mxGeometry relative="1" as="geometry">
            <mxPoint x="760" y="1000" as="targetPoint" />
            <Array as="points">
              <mxPoint x="947" y="1635" />
              <mxPoint x="760" y="1635" />
              <mxPoint x="760" y="983" />
            </Array>
          </mxGeometry>
        </mxCell>
        <mxCell id="9nV9WCwFxbPM0aRE23Jn-52" value="c = 1" style="rounded=0;whiteSpace=wrap;html=1;fontFamily=Times New Roman;fontSize=14;" vertex="1" parent="1">
          <mxGeometry x="907" y="1375" width="80" height="60" as="geometry" />
        </mxCell>
        <mxCell id="9nV9WCwFxbPM0aRE23Jn-53" style="edgeStyle=orthogonalEdgeStyle;rounded=0;orthogonalLoop=1;jettySize=auto;html=1;fontFamily=Times New Roman;fontSize=14;exitX=0;exitY=0.5;exitDx=0;exitDy=0;exitPerimeter=0;" edge="1" parent="1" source="9nV9WCwFxbPM0aRE23Jn-54" target="9nV9WCwFxbPM0aRE23Jn-55">
          <mxGeometry relative="1" as="geometry" />
        </mxCell>
        <mxCell id="9nV9WCwFxbPM0aRE23Jn-54" value="Если len(qtty) == 2" style="strokeWidth=2;html=1;shape=mxgraph.flowchart.decision;whiteSpace=wrap;fontFamily=Times New Roman;fontSize=14;" vertex="1" parent="1">
          <mxGeometry x="1337" y="1195" width="180" height="120" as="geometry" />
        </mxCell>
        <mxCell id="9nV9WCwFxbPM0aRE23Jn-55" value="Если qtty[0] in numbers and qtty[1] in numbers" style="strokeWidth=2;html=1;shape=mxgraph.flowchart.decision;whiteSpace=wrap;fontFamily=Times New Roman;fontSize=14;" vertex="1" parent="1">
          <mxGeometry x="1107" y="1315" width="320" height="120" as="geometry" />
        </mxCell>
        <mxCell id="9nV9WCwFxbPM0aRE23Jn-56" value="Да" style="text;html=1;strokeColor=none;fillColor=none;align=center;verticalAlign=middle;whiteSpace=wrap;rounded=0;fontFamily=Times New Roman;fontSize=14;" vertex="1" parent="1">
          <mxGeometry x="1277" y="1225" width="60" height="30" as="geometry" />
        </mxCell>
        <mxCell id="9nV9WCwFxbPM0aRE23Jn-57" style="edgeStyle=orthogonalEdgeStyle;rounded=0;orthogonalLoop=1;jettySize=auto;html=1;fontFamily=Times New Roman;fontSize=14;" edge="1" parent="1" target="9nV9WCwFxbPM0aRE23Jn-59">
          <mxGeometry relative="1" as="geometry">
            <mxPoint x="1267" y="1435" as="sourcePoint" />
          </mxGeometry>
        </mxCell>
        <mxCell id="9nV9WCwFxbPM0aRE23Jn-58" style="edgeStyle=orthogonalEdgeStyle;rounded=0;orthogonalLoop=1;jettySize=auto;html=1;fontFamily=Times New Roman;fontSize=14;entryX=0;entryY=0.75;entryDx=0;entryDy=0;" edge="1" parent="1" source="9nV9WCwFxbPM0aRE23Jn-59" target="9nV9WCwFxbPM0aRE23Jn-43">
          <mxGeometry relative="1" as="geometry">
            <mxPoint x="730" y="1010" as="targetPoint" />
            <Array as="points">
              <mxPoint x="730" y="1525" />
              <mxPoint x="730" y="1017" />
            </Array>
          </mxGeometry>
        </mxCell>
        <mxCell id="9nV9WCwFxbPM0aRE23Jn-59" value="c = 1" style="rounded=0;whiteSpace=wrap;html=1;fontFamily=Times New Roman;fontSize=14;" vertex="1" parent="1">
          <mxGeometry x="1227" y="1495" width="80" height="60" as="geometry" />
        </mxCell>
        <mxCell id="9nV9WCwFxbPM0aRE23Jn-60" style="edgeStyle=orthogonalEdgeStyle;rounded=0;orthogonalLoop=1;jettySize=auto;html=1;fontFamily=Times New Roman;fontSize=14;entryX=0.5;entryY=0;entryDx=0;entryDy=0;entryPerimeter=0;" edge="1" parent="1" target="9nV9WCwFxbPM0aRE23Jn-64">
          <mxGeometry relative="1" as="geometry">
            <mxPoint x="1517" y="1255" as="sourcePoint" />
            <mxPoint x="1627" y="1295" as="targetPoint" />
          </mxGeometry>
        </mxCell>
        <mxCell id="9nV9WCwFxbPM0aRE23Jn-61" value="Нет" style="text;html=1;align=center;verticalAlign=middle;resizable=0;points=[];autosize=1;strokeColor=none;fillColor=none;fontSize=14;fontFamily=Times New Roman;" vertex="1" parent="1">
          <mxGeometry x="1627" y="1225" width="50" height="30" as="geometry" />
        </mxCell>
        <mxCell id="9nV9WCwFxbPM0aRE23Jn-62" style="edgeStyle=orthogonalEdgeStyle;rounded=0;orthogonalLoop=1;jettySize=auto;html=1;fontFamily=Times New Roman;fontSize=14;exitX=0;exitY=0.5;exitDx=0;exitDy=0;exitPerimeter=0;" edge="1" parent="1" source="9nV9WCwFxbPM0aRE23Jn-64">
          <mxGeometry relative="1" as="geometry">
            <mxPoint x="1587" y="1435" as="targetPoint" />
            <Array as="points">
              <mxPoint x="1587" y="1375" />
            </Array>
          </mxGeometry>
        </mxCell>
        <mxCell id="9nV9WCwFxbPM0aRE23Jn-63" style="edgeStyle=orthogonalEdgeStyle;rounded=0;orthogonalLoop=1;jettySize=auto;html=1;fontFamily=Times New Roman;fontSize=14;" edge="1" parent="1" source="9nV9WCwFxbPM0aRE23Jn-64">
          <mxGeometry relative="1" as="geometry">
            <mxPoint x="1947" y="1435" as="targetPoint" />
            <Array as="points">
              <mxPoint x="1947" y="1375" />
            </Array>
          </mxGeometry>
        </mxCell>
        <mxCell id="9nV9WCwFxbPM0aRE23Jn-64" value="Если len(qtty) == 3" style="strokeWidth=2;html=1;shape=mxgraph.flowchart.decision;whiteSpace=wrap;fontFamily=Times New Roman;fontSize=14;" vertex="1" parent="1">
          <mxGeometry x="1657" y="1315" width="180" height="120" as="geometry" />
        </mxCell>
        <mxCell id="9nV9WCwFxbPM0aRE23Jn-65" value="Да" style="text;html=1;strokeColor=none;fillColor=none;align=center;verticalAlign=middle;whiteSpace=wrap;rounded=0;fontFamily=Times New Roman;fontSize=14;" vertex="1" parent="1">
          <mxGeometry x="1597" y="1345" width="60" height="30" as="geometry" />
        </mxCell>
        <mxCell id="9nV9WCwFxbPM0aRE23Jn-66" style="edgeStyle=orthogonalEdgeStyle;rounded=0;orthogonalLoop=1;jettySize=auto;html=1;entryX=0.5;entryY=0;entryDx=0;entryDy=0;fontFamily=Times New Roman;fontSize=14;" edge="1" parent="1" source="9nV9WCwFxbPM0aRE23Jn-67" target="9nV9WCwFxbPM0aRE23Jn-69">
          <mxGeometry relative="1" as="geometry" />
        </mxCell>
        <mxCell id="9nV9WCwFxbPM0aRE23Jn-67" value="Если int(qtty) == 100" style="strokeWidth=2;html=1;shape=mxgraph.flowchart.decision;whiteSpace=wrap;fontFamily=Times New Roman;fontSize=14;" vertex="1" parent="1">
          <mxGeometry x="1497" y="1435" width="180" height="120" as="geometry" />
        </mxCell>
        <mxCell id="9nV9WCwFxbPM0aRE23Jn-68" style="edgeStyle=orthogonalEdgeStyle;rounded=0;orthogonalLoop=1;jettySize=auto;html=1;entryX=0.1;entryY=0.176;entryDx=0;entryDy=0;entryPerimeter=0;" edge="1" parent="1" source="9nV9WCwFxbPM0aRE23Jn-69" target="9nV9WCwFxbPM0aRE23Jn-43">
          <mxGeometry relative="1" as="geometry">
            <mxPoint x="700" y="940" as="targetPoint" />
            <Array as="points">
              <mxPoint x="1587" y="1720" />
              <mxPoint x="700" y="1720" />
              <mxPoint x="700" y="974" />
            </Array>
          </mxGeometry>
        </mxCell>
        <mxCell id="9nV9WCwFxbPM0aRE23Jn-69" value="c = 1" style="rounded=0;whiteSpace=wrap;html=1;fontFamily=Times New Roman;fontSize=14;" vertex="1" parent="1">
          <mxGeometry x="1547" y="1615" width="80" height="60" as="geometry" />
        </mxCell>
        <mxCell id="9nV9WCwFxbPM0aRE23Jn-70" value="Да" style="text;html=1;strokeColor=none;fillColor=none;align=center;verticalAlign=middle;whiteSpace=wrap;rounded=0;fontFamily=Times New Roman;fontSize=14;" vertex="1" parent="1">
          <mxGeometry x="937" y="1335" width="60" height="30" as="geometry" />
        </mxCell>
        <mxCell id="9nV9WCwFxbPM0aRE23Jn-71" value="Да" style="text;html=1;strokeColor=none;fillColor=none;align=center;verticalAlign=middle;whiteSpace=wrap;rounded=0;fontFamily=Times New Roman;fontSize=14;" vertex="1" parent="1">
          <mxGeometry x="1257" y="1445" width="60" height="30" as="geometry" />
        </mxCell>
        <mxCell id="9nV9WCwFxbPM0aRE23Jn-72" value="Да" style="text;html=1;strokeColor=none;fillColor=none;align=center;verticalAlign=middle;whiteSpace=wrap;rounded=0;fontFamily=Times New Roman;fontSize=14;" vertex="1" parent="1">
          <mxGeometry x="1577" y="1565" width="60" height="30" as="geometry" />
        </mxCell>
        <mxCell id="9nV9WCwFxbPM0aRE23Jn-73" value="Нет" style="text;html=1;align=center;verticalAlign=middle;resizable=0;points=[];autosize=1;strokeColor=none;fillColor=none;fontSize=14;fontFamily=Times New Roman;" vertex="1" parent="1">
          <mxGeometry x="1867" y="1345" width="50" height="30" as="geometry" />
        </mxCell>
        <mxCell id="9nV9WCwFxbPM0aRE23Jn-74" style="edgeStyle=orthogonalEdgeStyle;rounded=0;orthogonalLoop=1;jettySize=auto;html=1;entryX=0.5;entryY=0;entryDx=0;entryDy=0;entryPerimeter=0;fontFamily=Times New Roman;fontSize=14;" edge="1" parent="1" source="9nV9WCwFxbPM0aRE23Jn-75" target="9nV9WCwFxbPM0aRE23Jn-77">
          <mxGeometry relative="1" as="geometry" />
        </mxCell>
        <mxCell id="9nV9WCwFxbPM0aRE23Jn-75" value="c = 0" style="rounded=0;whiteSpace=wrap;html=1;fontFamily=Times New Roman;fontSize=14;" vertex="1" parent="1">
          <mxGeometry x="1907" y="1435" width="80" height="60" as="geometry" />
        </mxCell>
        <mxCell id="9nV9WCwFxbPM0aRE23Jn-76" style="edgeStyle=orthogonalEdgeStyle;rounded=0;orthogonalLoop=1;jettySize=auto;html=1;fontFamily=Times New Roman;fontSize=14;entryX=0.487;entryY=-0.017;entryDx=0;entryDy=0;entryPerimeter=0;" edge="1" parent="1" source="9nV9WCwFxbPM0aRE23Jn-77" target="9nV9WCwFxbPM0aRE23Jn-79">
          <mxGeometry relative="1" as="geometry">
            <mxPoint x="1790" y="1680" as="targetPoint" />
            <Array as="points">
              <mxPoint x="1786" y="1615" />
            </Array>
          </mxGeometry>
        </mxCell>
        <mxCell id="9nV9WCwFxbPM0aRE23Jn-77" value="Если c == 0" style="strokeWidth=2;html=1;shape=mxgraph.flowchart.decision;whiteSpace=wrap;fontFamily=Times New Roman;fontSize=14;" vertex="1" parent="1">
          <mxGeometry x="1857" y="1555" width="180" height="120" as="geometry" />
        </mxCell>
        <mxCell id="9nV9WCwFxbPM0aRE23Jn-78" style="edgeStyle=orthogonalEdgeStyle;rounded=0;orthogonalLoop=1;jettySize=auto;html=1;entryX=0.537;entryY=0.021;entryDx=0;entryDy=0;entryPerimeter=0;" edge="1" parent="1" source="9nV9WCwFxbPM0aRE23Jn-79" target="9nV9WCwFxbPM0aRE23Jn-81">
          <mxGeometry relative="1" as="geometry" />
        </mxCell>
        <mxCell id="9nV9WCwFxbPM0aRE23Jn-79" value="Вывод: &quot;Введите значение от 0 до 100!&quot;" style="shape=parallelogram;perimeter=parallelogramPerimeter;whiteSpace=wrap;html=1;fixedSize=1;fontFamily=Times New Roman;fontSize=14;" vertex="1" parent="1">
          <mxGeometry x="1660" y="1719" width="260" height="60" as="geometry" />
        </mxCell>
        <mxCell id="9nV9WCwFxbPM0aRE23Jn-80" style="edgeStyle=orthogonalEdgeStyle;rounded=0;orthogonalLoop=1;jettySize=auto;html=1;fontFamily=Times New Roman;fontSize=14;entryX=0;entryY=0.5;entryDx=0;entryDy=0;" edge="1" parent="1" source="9nV9WCwFxbPM0aRE23Jn-81" target="9nV9WCwFxbPM0aRE23Jn-43">
          <mxGeometry relative="1" as="geometry">
            <mxPoint x="777" y="995" as="targetPoint" />
            <Array as="points">
              <mxPoint x="1787" y="1955" />
              <mxPoint x="827" y="1955" />
              <mxPoint x="827" y="1000" />
              <mxPoint x="1047" y="1000" />
            </Array>
          </mxGeometry>
        </mxCell>
        <mxCell id="9nV9WCwFxbPM0aRE23Jn-81" value="Ввод: qtty" style="shape=parallelogram;perimeter=parallelogramPerimeter;whiteSpace=wrap;html=1;fixedSize=1;fontFamily=Times New Roman;fontSize=14;" vertex="1" parent="1">
          <mxGeometry x="1737" y="1835" width="100" height="60" as="geometry" />
        </mxCell>
        <mxCell id="9nV9WCwFxbPM0aRE23Jn-82" value="Да" style="text;html=1;strokeColor=none;fillColor=none;align=center;verticalAlign=middle;whiteSpace=wrap;rounded=0;fontFamily=Times New Roman;fontSize=14;" vertex="1" parent="1">
          <mxGeometry x="1797" y="1585" width="60" height="30" as="geometry" />
        </mxCell>
        <mxCell id="9nV9WCwFxbPM0aRE23Jn-83" style="edgeStyle=orthogonalEdgeStyle;rounded=0;orthogonalLoop=1;jettySize=auto;html=1;fontFamily=Times New Roman;fontSize=14;exitX=0.454;exitY=0.997;exitDx=0;exitDy=0;exitPerimeter=0;" edge="1" parent="1" source="9nV9WCwFxbPM0aRE23Jn-84" target="9nV9WCwFxbPM0aRE23Jn-34">
          <mxGeometry relative="1" as="geometry">
            <mxPoint x="970" y="580" as="targetPoint" />
            <Array as="points">
              <mxPoint x="1080" y="2240" />
              <mxPoint x="680" y="2240" />
              <mxPoint x="680" y="580" />
            </Array>
          </mxGeometry>
        </mxCell>
        <mxCell id="9nV9WCwFxbPM0aRE23Jn-84" value="tmp.append(matrix[i][j])" style="rounded=0;whiteSpace=wrap;html=1;fontFamily=Times New Roman;fontSize=14;" vertex="1" parent="1">
          <mxGeometry x="1007" y="2080" width="160" height="60" as="geometry" />
        </mxCell>
        <mxCell id="9nV9WCwFxbPM0aRE23Jn-85" style="edgeStyle=orthogonalEdgeStyle;rounded=0;orthogonalLoop=1;jettySize=auto;html=1;entryX=0.5;entryY=0;entryDx=0;entryDy=0;fontFamily=Times New Roman;fontSize=14;" edge="1" parent="1" source="9nV9WCwFxbPM0aRE23Jn-86" target="9nV9WCwFxbPM0aRE23Jn-87">
          <mxGeometry relative="1" as="geometry" />
        </mxCell>
        <mxCell id="9nV9WCwFxbPM0aRE23Jn-86" value="matrix.append(p)" style="rounded=0;whiteSpace=wrap;html=1;fontFamily=Times New Roman;fontSize=14;" vertex="1" parent="1">
          <mxGeometry x="1027" y="2440" width="110" height="60" as="geometry" />
        </mxCell>
        <mxCell id="9nV9WCwFxbPM0aRE23Jn-87" value="C" style="ellipse;whiteSpace=wrap;html=1;aspect=fixed;fontFamily=Times New Roman;fontSize=14;" vertex="1" parent="1">
          <mxGeometry x="1042" y="2560" width="80" height="80" as="geometry" />
        </mxCell>
        <mxCell id="9nV9WCwFxbPM0aRE23Jn-88" value="D" style="ellipse;whiteSpace=wrap;html=1;aspect=fixed;fontFamily=Times New Roman;fontSize=14;" vertex="1" parent="1">
          <mxGeometry x="80" y="1420" width="80" height="80" as="geometry" />
        </mxCell>
        <mxCell id="9nV9WCwFxbPM0aRE23Jn-89" style="edgeStyle=orthogonalEdgeStyle;rounded=0;orthogonalLoop=1;jettySize=auto;html=1;entryX=0.5;entryY=0;entryDx=0;entryDy=0;fontFamily=Times New Roman;fontSize=14;" edge="1" parent="1" target="9nV9WCwFxbPM0aRE23Jn-88">
          <mxGeometry relative="1" as="geometry">
            <mxPoint x="120" y="1360" as="sourcePoint" />
          </mxGeometry>
        </mxCell>
        <mxCell id="9nV9WCwFxbPM0aRE23Jn-90" value="D" style="ellipse;whiteSpace=wrap;html=1;aspect=fixed;fontFamily=Times New Roman;fontSize=14;" vertex="1" parent="1">
          <mxGeometry x="1042" y="2700" width="80" height="80" as="geometry" />
        </mxCell>
        <mxCell id="9nV9WCwFxbPM0aRE23Jn-91" style="edgeStyle=orthogonalEdgeStyle;rounded=0;orthogonalLoop=1;jettySize=auto;html=1;entryX=0.5;entryY=0;entryDx=0;entryDy=0;fontFamily=Times New Roman;fontSize=14;" edge="1" parent="1" target="9nV9WCwFxbPM0aRE23Jn-90">
          <mxGeometry relative="1" as="geometry">
            <mxPoint x="1082" y="2640" as="sourcePoint" />
          </mxGeometry>
        </mxCell>
      </root>
    </mxGraphModel>
  </diagram>
  <diagram id="ulkE2SRXSrZCo1bBxJ9Y" name="Страница 4">
    <mxGraphModel dx="1050" dy="569" grid="1" gridSize="10" guides="1" tooltips="1" connect="1" arrows="1" fold="1" page="1" pageScale="1" pageWidth="827" pageHeight="1169" math="0" shadow="0">
      <root>
        <mxCell id="0" />
        <mxCell id="1" parent="0" />
        <mxCell id="gEYzX1bYu8EfYlNjAC4M-1" style="edgeStyle=orthogonalEdgeStyle;rounded=0;orthogonalLoop=1;jettySize=auto;html=1;fontFamily=Times New Roman;fontSize=14;" edge="1" parent="1" source="gEYzX1bYu8EfYlNjAC4M-2">
          <mxGeometry relative="1" as="geometry">
            <mxPoint x="440" y="160" as="targetPoint" />
          </mxGeometry>
        </mxCell>
        <mxCell id="gEYzX1bYu8EfYlNjAC4M-2" value="C" style="ellipse;whiteSpace=wrap;html=1;aspect=fixed;fontFamily=Times New Roman;fontSize=14;" vertex="1" parent="1">
          <mxGeometry x="400" y="40" width="80" height="80" as="geometry" />
        </mxCell>
        <mxCell id="gEYzX1bYu8EfYlNjAC4M-3" value="" style="endArrow=none;dashed=1;html=1;rounded=0;" edge="1" parent="1">
          <mxGeometry width="50" height="50" relative="1" as="geometry">
            <mxPoint x="470" y="80" as="sourcePoint" />
            <mxPoint x="510" y="80" as="targetPoint" />
          </mxGeometry>
        </mxCell>
        <mxCell id="gEYzX1bYu8EfYlNjAC4M-4" value="" style="strokeWidth=2;html=1;shape=mxgraph.flowchart.annotation_1;align=left;pointerEvents=1;" vertex="1" parent="1">
          <mxGeometry x="510" y="55" width="50" height="50" as="geometry" />
        </mxCell>
        <mxCell id="gEYzX1bYu8EfYlNjAC4M-5" value="&lt;font style=&quot;font-size: 14px;&quot; face=&quot;Times New Roman&quot;&gt;bubble_sort(tmp)&lt;br&gt;# сортировка массива tmp&lt;br&gt;# tmp - сортируемый массив&amp;nbsp;&lt;/font&gt;" style="text;html=1;strokeColor=none;fillColor=none;align=center;verticalAlign=middle;whiteSpace=wrap;rounded=0;" vertex="1" parent="1">
          <mxGeometry x="520" y="55" width="180" height="50" as="geometry" />
        </mxCell>
        <mxCell id="gEYzX1bYu8EfYlNjAC4M-6" style="edgeStyle=orthogonalEdgeStyle;rounded=0;orthogonalLoop=1;jettySize=auto;html=1;fontFamily=Times New Roman;fontSize=14;" edge="1" parent="1" source="gEYzX1bYu8EfYlNjAC4M-7">
          <mxGeometry relative="1" as="geometry">
            <mxPoint x="440" y="280" as="targetPoint" />
          </mxGeometry>
        </mxCell>
        <mxCell id="gEYzX1bYu8EfYlNjAC4M-7" value="&lt;font style=&quot;font-size: 14px;&quot; face=&quot;Times New Roman&quot;&gt;Начало&lt;/font&gt;" style="strokeWidth=2;html=1;shape=mxgraph.flowchart.terminator;whiteSpace=wrap;" vertex="1" parent="1">
          <mxGeometry x="360" y="160" width="160" height="70" as="geometry" />
        </mxCell>
        <mxCell id="gEYzX1bYu8EfYlNjAC4M-8" style="edgeStyle=orthogonalEdgeStyle;rounded=0;orthogonalLoop=1;jettySize=auto;html=1;fontFamily=Times New Roman;fontSize=14;" edge="1" parent="1" source="gEYzX1bYu8EfYlNjAC4M-10">
          <mxGeometry relative="1" as="geometry">
            <mxPoint x="440" y="400.0000000000002" as="targetPoint" />
          </mxGeometry>
        </mxCell>
        <mxCell id="gEYzX1bYu8EfYlNjAC4M-9" style="edgeStyle=orthogonalEdgeStyle;rounded=0;orthogonalLoop=1;jettySize=auto;html=1;fontFamily=Times New Roman;fontSize=14;" edge="1" parent="1" source="gEYzX1bYu8EfYlNjAC4M-10">
          <mxGeometry relative="1" as="geometry">
            <mxPoint x="440" y="960" as="targetPoint" />
            <Array as="points">
              <mxPoint x="680" y="320" />
              <mxPoint x="680" y="920" />
              <mxPoint x="440" y="920" />
            </Array>
          </mxGeometry>
        </mxCell>
        <mxCell id="gEYzX1bYu8EfYlNjAC4M-10" value="for i in range(len(tmp) - 1)" style="shape=hexagon;perimeter=hexagonPerimeter2;whiteSpace=wrap;html=1;fixedSize=1;fontFamily=Times New Roman;fontSize=14;" vertex="1" parent="1">
          <mxGeometry x="360" y="280" width="160" height="80" as="geometry" />
        </mxCell>
        <mxCell id="gEYzX1bYu8EfYlNjAC4M-11" style="edgeStyle=orthogonalEdgeStyle;rounded=0;orthogonalLoop=1;jettySize=auto;html=1;entryX=0.5;entryY=0;entryDx=0;entryDy=0;fontFamily=Times New Roman;fontSize=14;" edge="1" parent="1" source="gEYzX1bYu8EfYlNjAC4M-13">
          <mxGeometry relative="1" as="geometry">
            <mxPoint x="440" y="520" as="targetPoint" />
          </mxGeometry>
        </mxCell>
        <mxCell id="gEYzX1bYu8EfYlNjAC4M-12" style="edgeStyle=orthogonalEdgeStyle;rounded=0;orthogonalLoop=1;jettySize=auto;html=1;fontFamily=Times New Roman;fontSize=14;entryX=0;entryY=0.5;entryDx=0;entryDy=0;" edge="1" parent="1" source="gEYzX1bYu8EfYlNjAC4M-13" target="gEYzX1bYu8EfYlNjAC4M-10">
          <mxGeometry relative="1" as="geometry">
            <mxPoint x="240" y="320" as="targetPoint" />
            <Array as="points">
              <mxPoint x="640" y="440" />
              <mxPoint x="640" y="880" />
              <mxPoint x="240" y="880" />
              <mxPoint x="240" y="320" />
            </Array>
          </mxGeometry>
        </mxCell>
        <mxCell id="gEYzX1bYu8EfYlNjAC4M-13" value="for j in range(len(tmp) - i - 1)" style="shape=hexagon;perimeter=hexagonPerimeter2;whiteSpace=wrap;html=1;fixedSize=1;fontFamily=Times New Roman;fontSize=14;" vertex="1" parent="1">
          <mxGeometry x="350" y="400" width="180" height="80" as="geometry" />
        </mxCell>
        <mxCell id="gEYzX1bYu8EfYlNjAC4M-14" style="edgeStyle=orthogonalEdgeStyle;rounded=0;orthogonalLoop=1;jettySize=auto;html=1;fontFamily=Times New Roman;fontSize=14;entryX=0.5;entryY=0;entryDx=0;entryDy=0;" edge="1" parent="1" source="gEYzX1bYu8EfYlNjAC4M-16" target="gEYzX1bYu8EfYlNjAC4M-18">
          <mxGeometry relative="1" as="geometry">
            <mxPoint x="440" y="680" as="targetPoint" />
          </mxGeometry>
        </mxCell>
        <mxCell id="gEYzX1bYu8EfYlNjAC4M-15" style="edgeStyle=orthogonalEdgeStyle;rounded=0;orthogonalLoop=1;jettySize=auto;html=1;fontFamily=Times New Roman;fontSize=14;entryX=1;entryY=0.5;entryDx=0;entryDy=0;" edge="1" parent="1" source="gEYzX1bYu8EfYlNjAC4M-16" target="gEYzX1bYu8EfYlNjAC4M-13">
          <mxGeometry relative="1" as="geometry">
            <mxPoint x="600.0344827586207" y="640" as="targetPoint" />
            <Array as="points">
              <mxPoint x="600" y="580" />
              <mxPoint x="600" y="440" />
            </Array>
          </mxGeometry>
        </mxCell>
        <mxCell id="gEYzX1bYu8EfYlNjAC4M-16" value="Если tmp[j] &amp;gt; tmp[j + 1]" style="strokeWidth=2;html=1;shape=mxgraph.flowchart.decision;whiteSpace=wrap;fontFamily=Times New Roman;fontSize=14;" vertex="1" parent="1">
          <mxGeometry x="350" y="520" width="180" height="120" as="geometry" />
        </mxCell>
        <mxCell id="gEYzX1bYu8EfYlNjAC4M-17" style="edgeStyle=orthogonalEdgeStyle;rounded=0;orthogonalLoop=1;jettySize=auto;html=1;fontFamily=Times New Roman;fontSize=14;entryX=0;entryY=0.5;entryDx=0;entryDy=0;" edge="1" parent="1" source="gEYzX1bYu8EfYlNjAC4M-18" target="gEYzX1bYu8EfYlNjAC4M-13">
          <mxGeometry relative="1" as="geometry">
            <mxPoint x="280" y="440" as="targetPoint" />
            <Array as="points">
              <mxPoint x="440" y="820" />
              <mxPoint x="280" y="820" />
              <mxPoint x="280" y="440" />
            </Array>
          </mxGeometry>
        </mxCell>
        <mxCell id="gEYzX1bYu8EfYlNjAC4M-18" value="&lt;font style=&quot;font-size: 14px;&quot; face=&quot;Times New Roman&quot;&gt;tmp[j], tmp[j + 1] = tmp[j + 1], tmp[j]&lt;br&gt;&lt;/font&gt;" style="rounded=0;whiteSpace=wrap;html=1;" vertex="1" parent="1">
          <mxGeometry x="320" y="700" width="240" height="60" as="geometry" />
        </mxCell>
        <mxCell id="gEYzX1bYu8EfYlNjAC4M-19" value="Да" style="text;html=1;strokeColor=none;fillColor=none;align=center;verticalAlign=middle;whiteSpace=wrap;rounded=0;fontFamily=Times New Roman;fontSize=14;" vertex="1" parent="1">
          <mxGeometry x="430" y="660" width="60" height="30" as="geometry" />
        </mxCell>
        <mxCell id="gEYzX1bYu8EfYlNjAC4M-20" value="Нет" style="text;html=1;align=center;verticalAlign=middle;resizable=0;points=[];autosize=1;strokeColor=none;fillColor=none;fontSize=14;fontFamily=Times New Roman;" vertex="1" parent="1">
          <mxGeometry x="540" y="550" width="50" height="30" as="geometry" />
        </mxCell>
        <mxCell id="gEYzX1bYu8EfYlNjAC4M-21" value="Возвращает: tmp" style="shape=parallelogram;perimeter=parallelogramPerimeter;whiteSpace=wrap;html=1;fixedSize=1;fontFamily=Times New Roman;fontSize=14;" vertex="1" parent="1">
          <mxGeometry x="322" y="960" width="236" height="60" as="geometry" />
        </mxCell>
      </root>
    </mxGraphModel>
  </diagram>
  <diagram id="7xl4Az0KWexRNtVDZaPj" name="Страница 5">
    <mxGraphModel dx="1050" dy="569" grid="1" gridSize="10" guides="1" tooltips="1" connect="1" arrows="1" fold="1" page="1" pageScale="1" pageWidth="827" pageHeight="1169" math="0" shadow="0">
      <root>
        <mxCell id="0" />
        <mxCell id="1" parent="0" />
        <mxCell id="MdbA-EqyKeafDDtTRBsa-1" style="edgeStyle=orthogonalEdgeStyle;rounded=0;orthogonalLoop=1;jettySize=auto;html=1;fontFamily=Times New Roman;fontSize=14;" edge="1" parent="1" source="MdbA-EqyKeafDDtTRBsa-2">
          <mxGeometry relative="1" as="geometry">
            <mxPoint x="440" y="160" as="targetPoint" />
          </mxGeometry>
        </mxCell>
        <mxCell id="MdbA-EqyKeafDDtTRBsa-2" value="D" style="ellipse;whiteSpace=wrap;html=1;aspect=fixed;fontFamily=Times New Roman;fontSize=14;" vertex="1" parent="1">
          <mxGeometry x="400" y="40" width="80" height="80" as="geometry" />
        </mxCell>
        <mxCell id="MdbA-EqyKeafDDtTRBsa-3" style="edgeStyle=orthogonalEdgeStyle;rounded=0;orthogonalLoop=1;jettySize=auto;html=1;fontFamily=Times New Roman;fontSize=14;" edge="1" parent="1" source="MdbA-EqyKeafDDtTRBsa-4">
          <mxGeometry relative="1" as="geometry">
            <mxPoint x="440" y="280" as="targetPoint" />
          </mxGeometry>
        </mxCell>
        <mxCell id="MdbA-EqyKeafDDtTRBsa-4" value="&lt;font style=&quot;font-size: 14px;&quot; face=&quot;Times New Roman&quot;&gt;Начало&lt;/font&gt;" style="strokeWidth=2;html=1;shape=mxgraph.flowchart.terminator;whiteSpace=wrap;" vertex="1" parent="1">
          <mxGeometry x="360" y="160" width="160" height="70" as="geometry" />
        </mxCell>
        <mxCell id="MdbA-EqyKeafDDtTRBsa-5" style="edgeStyle=orthogonalEdgeStyle;rounded=0;orthogonalLoop=1;jettySize=auto;html=1;fontFamily=Times New Roman;fontSize=14;" edge="1" parent="1" source="MdbA-EqyKeafDDtTRBsa-7">
          <mxGeometry relative="1" as="geometry">
            <mxPoint x="440" y="520.0000000000002" as="targetPoint" />
          </mxGeometry>
        </mxCell>
        <mxCell id="MdbA-EqyKeafDDtTRBsa-6" style="edgeStyle=orthogonalEdgeStyle;rounded=0;orthogonalLoop=1;jettySize=auto;html=1;fontFamily=Times New Roman;fontSize=14;" edge="1" parent="1" source="MdbA-EqyKeafDDtTRBsa-7">
          <mxGeometry relative="1" as="geometry">
            <mxPoint x="440" y="1160" as="targetPoint" />
            <Array as="points">
              <mxPoint x="670" y="440" />
              <mxPoint x="670" y="1120" />
              <mxPoint x="440" y="1120" />
            </Array>
          </mxGeometry>
        </mxCell>
        <mxCell id="MdbA-EqyKeafDDtTRBsa-7" value="for i in range(len(matrix))" style="shape=hexagon;perimeter=hexagonPerimeter2;whiteSpace=wrap;html=1;fixedSize=1;fontFamily=Times New Roman;fontSize=14;" vertex="1" parent="1">
          <mxGeometry x="360" y="400" width="160" height="80" as="geometry" />
        </mxCell>
        <mxCell id="MdbA-EqyKeafDDtTRBsa-8" style="edgeStyle=orthogonalEdgeStyle;rounded=0;orthogonalLoop=1;jettySize=auto;html=1;entryX=0.5;entryY=0;entryDx=0;entryDy=0;fontFamily=Times New Roman;fontSize=14;" edge="1" parent="1" source="MdbA-EqyKeafDDtTRBsa-10">
          <mxGeometry relative="1" as="geometry">
            <mxPoint x="440" y="640" as="targetPoint" />
          </mxGeometry>
        </mxCell>
        <mxCell id="MdbA-EqyKeafDDtTRBsa-9" style="edgeStyle=orthogonalEdgeStyle;rounded=0;orthogonalLoop=1;jettySize=auto;html=1;fontFamily=Times New Roman;fontSize=14;entryX=0;entryY=0.5;entryDx=0;entryDy=0;" edge="1" parent="1" source="MdbA-EqyKeafDDtTRBsa-10" target="MdbA-EqyKeafDDtTRBsa-7">
          <mxGeometry relative="1" as="geometry">
            <mxPoint x="240" y="440" as="targetPoint" />
            <Array as="points">
              <mxPoint x="640" y="560" />
              <mxPoint x="640" y="1080" />
              <mxPoint x="240" y="1080" />
              <mxPoint x="240" y="440" />
            </Array>
          </mxGeometry>
        </mxCell>
        <mxCell id="MdbA-EqyKeafDDtTRBsa-10" value="for j in range(len(matrix) - i)" style="shape=hexagon;perimeter=hexagonPerimeter2;whiteSpace=wrap;html=1;fixedSize=1;fontFamily=Times New Roman;fontSize=14;" vertex="1" parent="1">
          <mxGeometry x="350" y="520" width="180" height="80" as="geometry" />
        </mxCell>
        <mxCell id="MdbA-EqyKeafDDtTRBsa-11" value="E" style="ellipse;whiteSpace=wrap;html=1;aspect=fixed;fontFamily=Times New Roman;fontSize=14;" vertex="1" parent="1">
          <mxGeometry x="400" y="1160" width="80" height="80" as="geometry" />
        </mxCell>
        <mxCell id="MdbA-EqyKeafDDtTRBsa-12" style="edgeStyle=orthogonalEdgeStyle;rounded=0;orthogonalLoop=1;jettySize=auto;html=1;fontFamily=Times New Roman;fontSize=14;" edge="1" parent="1" source="MdbA-EqyKeafDDtTRBsa-14">
          <mxGeometry relative="1" as="geometry">
            <mxPoint x="440" y="1000" as="targetPoint" />
          </mxGeometry>
        </mxCell>
        <mxCell id="MdbA-EqyKeafDDtTRBsa-13" style="edgeStyle=orthogonalEdgeStyle;rounded=0;orthogonalLoop=1;jettySize=auto;html=1;fontFamily=Times New Roman;fontSize=14;" edge="1" parent="1" source="MdbA-EqyKeafDDtTRBsa-14" target="MdbA-EqyKeafDDtTRBsa-10">
          <mxGeometry relative="1" as="geometry">
            <mxPoint x="279.9999999999998" y="960" as="targetPoint" />
            <Array as="points">
              <mxPoint x="280" y="900" />
              <mxPoint x="280" y="560" />
            </Array>
          </mxGeometry>
        </mxCell>
        <mxCell id="MdbA-EqyKeafDDtTRBsa-14" value="Если k == len(tmp)" style="strokeWidth=2;html=1;shape=mxgraph.flowchart.decision;whiteSpace=wrap;fontFamily=Times New Roman;fontSize=14;" vertex="1" parent="1">
          <mxGeometry x="350" y="840" width="180" height="120" as="geometry" />
        </mxCell>
        <mxCell id="MdbA-EqyKeafDDtTRBsa-15" style="edgeStyle=orthogonalEdgeStyle;rounded=0;orthogonalLoop=1;jettySize=auto;html=1;fontFamily=Times New Roman;fontSize=14;" edge="1" parent="1" source="MdbA-EqyKeafDDtTRBsa-16" target="MdbA-EqyKeafDDtTRBsa-22">
          <mxGeometry relative="1" as="geometry" />
        </mxCell>
        <mxCell id="MdbA-EqyKeafDDtTRBsa-16" value="&lt;font style=&quot;font-size: 14px;&quot; face=&quot;Times New Roman&quot;&gt;matrix[i][j] = tmp[k]&lt;br&gt;&lt;/font&gt;" style="rounded=0;whiteSpace=wrap;html=1;" vertex="1" parent="1">
          <mxGeometry x="360" y="640" width="160" height="60" as="geometry" />
        </mxCell>
        <mxCell id="MdbA-EqyKeafDDtTRBsa-17" value="Да" style="text;html=1;strokeColor=none;fillColor=none;align=center;verticalAlign=middle;whiteSpace=wrap;rounded=0;fontFamily=Times New Roman;fontSize=14;" vertex="1" parent="1">
          <mxGeometry x="390" y="960" width="60" height="30" as="geometry" />
        </mxCell>
        <mxCell id="MdbA-EqyKeafDDtTRBsa-18" value="Нет" style="text;html=1;align=center;verticalAlign=middle;resizable=0;points=[];autosize=1;strokeColor=none;fillColor=none;fontSize=14;fontFamily=Times New Roman;" vertex="1" parent="1">
          <mxGeometry x="290" y="870" width="50" height="30" as="geometry" />
        </mxCell>
        <mxCell id="MdbA-EqyKeafDDtTRBsa-19" style="edgeStyle=orthogonalEdgeStyle;rounded=0;orthogonalLoop=1;jettySize=auto;html=1;fontFamily=Times New Roman;fontSize=14;" edge="1" parent="1" source="MdbA-EqyKeafDDtTRBsa-20">
          <mxGeometry relative="1" as="geometry">
            <mxPoint x="440" y="400" as="targetPoint" />
          </mxGeometry>
        </mxCell>
        <mxCell id="MdbA-EqyKeafDDtTRBsa-20" value="&lt;font style=&quot;font-size: 14px;&quot; face=&quot;Times New Roman&quot;&gt;k = 0&lt;br&gt;&lt;/font&gt;" style="rounded=0;whiteSpace=wrap;html=1;" vertex="1" parent="1">
          <mxGeometry x="400" y="280" width="80" height="60" as="geometry" />
        </mxCell>
        <mxCell id="MdbA-EqyKeafDDtTRBsa-21" style="edgeStyle=orthogonalEdgeStyle;rounded=0;orthogonalLoop=1;jettySize=auto;html=1;fontFamily=Times New Roman;fontSize=14;" edge="1" parent="1" source="MdbA-EqyKeafDDtTRBsa-22">
          <mxGeometry relative="1" as="geometry">
            <mxPoint x="440" y="840" as="targetPoint" />
          </mxGeometry>
        </mxCell>
        <mxCell id="MdbA-EqyKeafDDtTRBsa-22" value="&lt;font style=&quot;font-size: 14px;&quot; face=&quot;Times New Roman&quot;&gt;k += 1&lt;br&gt;&lt;/font&gt;" style="rounded=0;whiteSpace=wrap;html=1;fontFamily=Times New Roman;fontSize=14;" vertex="1" parent="1">
          <mxGeometry x="400" y="740" width="80" height="60" as="geometry" />
        </mxCell>
        <mxCell id="MdbA-EqyKeafDDtTRBsa-23" value="&lt;font style=&quot;font-size: 14px;&quot; face=&quot;Times New Roman&quot;&gt;break&lt;br&gt;&lt;/font&gt;" style="rounded=0;whiteSpace=wrap;html=1;fontFamily=Times New Roman;fontSize=14;" vertex="1" parent="1">
          <mxGeometry x="400" y="1000" width="80" height="60" as="geometry" />
        </mxCell>
      </root>
    </mxGraphModel>
  </diagram>
  <diagram id="dEuSTvYrD3E-xA4g0NO2" name="Страница 6">
    <mxGraphModel dx="1050" dy="1738" grid="1" gridSize="10" guides="1" tooltips="1" connect="1" arrows="1" fold="1" page="1" pageScale="1" pageWidth="827" pageHeight="1169" math="0" shadow="0">
      <root>
        <mxCell id="0" />
        <mxCell id="1" parent="0" />
        <mxCell id="z5TbxtpNsivLyjmSGzlt-1" style="edgeStyle=orthogonalEdgeStyle;rounded=0;orthogonalLoop=1;jettySize=auto;html=1;entryX=0.5;entryY=0;entryDx=0;entryDy=0;" edge="1" parent="1" source="z5TbxtpNsivLyjmSGzlt-2" target="z5TbxtpNsivLyjmSGzlt-5">
          <mxGeometry relative="1" as="geometry" />
        </mxCell>
        <mxCell id="z5TbxtpNsivLyjmSGzlt-2" value="E" style="ellipse;whiteSpace=wrap;html=1;aspect=fixed;fontFamily=Times New Roman;fontSize=14;" vertex="1" parent="1">
          <mxGeometry x="400" y="-1120" width="80" height="80" as="geometry" />
        </mxCell>
        <mxCell id="z5TbxtpNsivLyjmSGzlt-3" style="edgeStyle=orthogonalEdgeStyle;rounded=0;orthogonalLoop=1;jettySize=auto;html=1;fontFamily=Times New Roman;fontSize=14;" edge="1" parent="1" source="z5TbxtpNsivLyjmSGzlt-5">
          <mxGeometry relative="1" as="geometry">
            <mxPoint x="440" y="-839.9999999999998" as="targetPoint" />
          </mxGeometry>
        </mxCell>
        <mxCell id="z5TbxtpNsivLyjmSGzlt-4" style="edgeStyle=orthogonalEdgeStyle;rounded=0;orthogonalLoop=1;jettySize=auto;html=1;fontFamily=Times New Roman;fontSize=14;" edge="1" parent="1" source="z5TbxtpNsivLyjmSGzlt-5">
          <mxGeometry relative="1" as="geometry">
            <mxPoint x="440" y="-280" as="targetPoint" />
            <Array as="points">
              <mxPoint x="670" y="-920" />
              <mxPoint x="670" y="-320" />
              <mxPoint x="440" y="-320" />
            </Array>
          </mxGeometry>
        </mxCell>
        <mxCell id="z5TbxtpNsivLyjmSGzlt-5" value="for i in range(M)" style="shape=hexagon;perimeter=hexagonPerimeter2;whiteSpace=wrap;html=1;fixedSize=1;fontFamily=Times New Roman;fontSize=14;" vertex="1" parent="1">
          <mxGeometry x="380" y="-960" width="120" height="80" as="geometry" />
        </mxCell>
        <mxCell id="z5TbxtpNsivLyjmSGzlt-6" style="edgeStyle=orthogonalEdgeStyle;rounded=0;orthogonalLoop=1;jettySize=auto;html=1;entryX=0.5;entryY=0;entryDx=0;entryDy=0;fontFamily=Times New Roman;fontSize=14;" edge="1" parent="1" source="z5TbxtpNsivLyjmSGzlt-8">
          <mxGeometry relative="1" as="geometry">
            <mxPoint x="440" y="-720" as="targetPoint" />
          </mxGeometry>
        </mxCell>
        <mxCell id="z5TbxtpNsivLyjmSGzlt-7" style="edgeStyle=orthogonalEdgeStyle;rounded=0;orthogonalLoop=1;jettySize=auto;html=1;fontFamily=Times New Roman;fontSize=14;entryX=0;entryY=0.5;entryDx=0;entryDy=0;" edge="1" parent="1" source="z5TbxtpNsivLyjmSGzlt-8" target="z5TbxtpNsivLyjmSGzlt-5">
          <mxGeometry relative="1" as="geometry">
            <mxPoint x="240" y="-920" as="targetPoint" />
            <Array as="points">
              <mxPoint x="640" y="-800" />
              <mxPoint x="640" y="-360" />
              <mxPoint x="240" y="-360" />
              <mxPoint x="240" y="-920" />
            </Array>
          </mxGeometry>
        </mxCell>
        <mxCell id="z5TbxtpNsivLyjmSGzlt-8" value="for j in range(M)" style="shape=hexagon;perimeter=hexagonPerimeter2;whiteSpace=wrap;html=1;fixedSize=1;fontFamily=Times New Roman;fontSize=14;" vertex="1" parent="1">
          <mxGeometry x="380" y="-840" width="120" height="80" as="geometry" />
        </mxCell>
        <mxCell id="z5TbxtpNsivLyjmSGzlt-9" style="edgeStyle=orthogonalEdgeStyle;rounded=0;orthogonalLoop=1;jettySize=auto;html=1;fontFamily=Times New Roman;fontSize=14;entryX=0;entryY=0.5;entryDx=0;entryDy=0;" edge="1" parent="1" source="z5TbxtpNsivLyjmSGzlt-11" target="z5TbxtpNsivLyjmSGzlt-8">
          <mxGeometry relative="1" as="geometry">
            <mxPoint x="280" y="-800" as="targetPoint" />
            <Array as="points">
              <mxPoint x="440" y="-400" />
              <mxPoint x="280" y="-400" />
              <mxPoint x="280" y="-800" />
            </Array>
          </mxGeometry>
        </mxCell>
        <mxCell id="z5TbxtpNsivLyjmSGzlt-10" style="edgeStyle=orthogonalEdgeStyle;rounded=0;orthogonalLoop=1;jettySize=auto;html=1;" edge="1" parent="1" source="z5TbxtpNsivLyjmSGzlt-11">
          <mxGeometry relative="1" as="geometry">
            <mxPoint x="500" y="-800" as="targetPoint" />
            <Array as="points">
              <mxPoint x="580" y="-660" />
            </Array>
          </mxGeometry>
        </mxCell>
        <mxCell id="z5TbxtpNsivLyjmSGzlt-11" value="Если k == len(tmp)" style="strokeWidth=2;html=1;shape=mxgraph.flowchart.decision;whiteSpace=wrap;fontFamily=Times New Roman;fontSize=14;" vertex="1" parent="1">
          <mxGeometry x="350" y="-720" width="180" height="120" as="geometry" />
        </mxCell>
        <mxCell id="z5TbxtpNsivLyjmSGzlt-12" value="Да" style="text;html=1;strokeColor=none;fillColor=none;align=center;verticalAlign=middle;whiteSpace=wrap;rounded=0;fontFamily=Times New Roman;fontSize=14;" vertex="1" parent="1">
          <mxGeometry x="420" y="-570" width="60" height="30" as="geometry" />
        </mxCell>
        <mxCell id="z5TbxtpNsivLyjmSGzlt-13" value="Нет" style="text;html=1;align=center;verticalAlign=middle;resizable=0;points=[];autosize=1;strokeColor=none;fillColor=none;fontSize=14;fontFamily=Times New Roman;" vertex="1" parent="1">
          <mxGeometry x="520" y="-690" width="50" height="30" as="geometry" />
        </mxCell>
        <mxCell id="z5TbxtpNsivLyjmSGzlt-14" value="&lt;font style=&quot;font-size: 14px;&quot; face=&quot;Times New Roman&quot;&gt;matrix[i][j] = matrix[i][j] * (-1)&lt;br&gt;# не сортированные элементы умножаем на минус один&lt;br&gt;&lt;/font&gt;" style="rounded=0;whiteSpace=wrap;html=1;fontFamily=Times New Roman;fontSize=14;" vertex="1" parent="1">
          <mxGeometry x="300" y="-520" width="320" height="60" as="geometry" />
        </mxCell>
        <mxCell id="z5TbxtpNsivLyjmSGzlt-15" style="edgeStyle=orthogonalEdgeStyle;rounded=0;orthogonalLoop=1;jettySize=auto;html=1;entryX=0.5;entryY=0;entryDx=0;entryDy=0;" edge="1" parent="1" source="z5TbxtpNsivLyjmSGzlt-16" target="z5TbxtpNsivLyjmSGzlt-19">
          <mxGeometry relative="1" as="geometry" />
        </mxCell>
        <mxCell id="z5TbxtpNsivLyjmSGzlt-16" value="print()" style="rounded=0;whiteSpace=wrap;html=1;" vertex="1" parent="1">
          <mxGeometry x="400" y="-280" width="80" height="60" as="geometry" />
        </mxCell>
        <mxCell id="z5TbxtpNsivLyjmSGzlt-17" style="edgeStyle=orthogonalEdgeStyle;rounded=0;orthogonalLoop=1;jettySize=auto;html=1;fontFamily=Times New Roman;fontSize=14;" edge="1" parent="1" source="z5TbxtpNsivLyjmSGzlt-19">
          <mxGeometry relative="1" as="geometry">
            <mxPoint x="439.97" y="-39.99999999999977" as="targetPoint" />
          </mxGeometry>
        </mxCell>
        <mxCell id="z5TbxtpNsivLyjmSGzlt-18" style="edgeStyle=orthogonalEdgeStyle;rounded=0;orthogonalLoop=1;jettySize=auto;html=1;fontFamily=Times New Roman;fontSize=14;" edge="1" parent="1" source="z5TbxtpNsivLyjmSGzlt-19">
          <mxGeometry relative="1" as="geometry">
            <mxPoint x="440" y="400" as="targetPoint" />
            <Array as="points">
              <mxPoint x="670" y="-120" />
              <mxPoint x="670" y="320" />
              <mxPoint x="440" y="320" />
            </Array>
          </mxGeometry>
        </mxCell>
        <mxCell id="z5TbxtpNsivLyjmSGzlt-19" value="for i in range(M)" style="shape=hexagon;perimeter=hexagonPerimeter2;whiteSpace=wrap;html=1;fixedSize=1;fontFamily=Times New Roman;fontSize=14;" vertex="1" parent="1">
          <mxGeometry x="380" y="-160" width="120" height="80" as="geometry" />
        </mxCell>
        <mxCell id="z5TbxtpNsivLyjmSGzlt-20" style="edgeStyle=orthogonalEdgeStyle;rounded=0;orthogonalLoop=1;jettySize=auto;html=1;entryX=0.5;entryY=0;entryDx=0;entryDy=0;fontFamily=Times New Roman;fontSize=14;" edge="1" parent="1" source="z5TbxtpNsivLyjmSGzlt-22">
          <mxGeometry relative="1" as="geometry">
            <mxPoint x="439.97" y="80" as="targetPoint" />
          </mxGeometry>
        </mxCell>
        <mxCell id="z5TbxtpNsivLyjmSGzlt-21" style="edgeStyle=orthogonalEdgeStyle;rounded=0;orthogonalLoop=1;jettySize=auto;html=1;entryX=1;entryY=0.5;entryDx=0;entryDy=0;" edge="1" parent="1" source="z5TbxtpNsivLyjmSGzlt-22" target="z5TbxtpNsivLyjmSGzlt-26">
          <mxGeometry relative="1" as="geometry">
            <mxPoint x="640" y="280" as="targetPoint" />
            <Array as="points">
              <mxPoint x="640" />
              <mxPoint x="640" y="270" />
            </Array>
          </mxGeometry>
        </mxCell>
        <mxCell id="z5TbxtpNsivLyjmSGzlt-22" value="for j in range(M)" style="shape=hexagon;perimeter=hexagonPerimeter2;whiteSpace=wrap;html=1;fixedSize=1;fontFamily=Times New Roman;fontSize=14;" vertex="1" parent="1">
          <mxGeometry x="379.97" y="-40" width="120" height="80" as="geometry" />
        </mxCell>
        <mxCell id="z5TbxtpNsivLyjmSGzlt-23" style="edgeStyle=orthogonalEdgeStyle;rounded=0;orthogonalLoop=1;jettySize=auto;html=1;entryX=0;entryY=0.5;entryDx=0;entryDy=0;" edge="1" parent="1" source="z5TbxtpNsivLyjmSGzlt-24" target="z5TbxtpNsivLyjmSGzlt-22">
          <mxGeometry relative="1" as="geometry">
            <mxPoint x="280" as="targetPoint" />
            <Array as="points">
              <mxPoint x="440" y="200" />
              <mxPoint x="280" y="200" />
              <mxPoint x="280" />
            </Array>
          </mxGeometry>
        </mxCell>
        <mxCell id="z5TbxtpNsivLyjmSGzlt-24" value="&lt;font style=&quot;font-size: 14px;&quot; face=&quot;Times New Roman&quot;&gt;print(matrix[i][j], end=&quot; &quot;)&lt;br&gt;&lt;/font&gt;" style="rounded=0;whiteSpace=wrap;html=1;fontFamily=Times New Roman;fontSize=14;" vertex="1" parent="1">
          <mxGeometry x="339.97" y="80" width="200" height="60" as="geometry" />
        </mxCell>
        <mxCell id="z5TbxtpNsivLyjmSGzlt-25" style="edgeStyle=orthogonalEdgeStyle;rounded=0;orthogonalLoop=1;jettySize=auto;html=1;entryX=0;entryY=0.5;entryDx=0;entryDy=0;" edge="1" parent="1" source="z5TbxtpNsivLyjmSGzlt-26" target="z5TbxtpNsivLyjmSGzlt-19">
          <mxGeometry relative="1" as="geometry">
            <mxPoint x="240" y="-120" as="targetPoint" />
            <Array as="points">
              <mxPoint x="240" y="270" />
              <mxPoint x="240" y="-120" />
            </Array>
          </mxGeometry>
        </mxCell>
        <mxCell id="z5TbxtpNsivLyjmSGzlt-26" value="&lt;font style=&quot;font-size: 14px;&quot; face=&quot;Times New Roman&quot;&gt;print()&lt;br&gt;&lt;/font&gt;" style="rounded=0;whiteSpace=wrap;html=1;fontFamily=Times New Roman;fontSize=14;" vertex="1" parent="1">
          <mxGeometry x="400" y="240" width="80" height="60" as="geometry" />
        </mxCell>
        <mxCell id="z5TbxtpNsivLyjmSGzlt-27" value="&lt;font style=&quot;font-size: 14px;&quot; face=&quot;Times New Roman&quot;&gt;Конец&lt;/font&gt;" style="strokeWidth=2;html=1;shape=mxgraph.flowchart.terminator;whiteSpace=wrap;" vertex="1" parent="1">
          <mxGeometry x="360" y="400" width="160" height="70" as="geometry" />
        </mxCell>
      </root>
    </mxGraphModel>
  </diagram>
</mxfile>
